SplineFontDB: 3.2
FontName: MetalGear
FullName: Metal Gear
FamilyName: Metal Gear
Weight: Book
Copyright: Created by Steve Snape, 2002. All Rights Reserved.
Version: 1.0: 24 May 2002
ItalicAngle: 0
UnderlinePosition: -188
UnderlineWidth: 48
Ascent: 1638
Descent: 410
InvalidEm: 0
sfntRevision: 0x00010000
LayerCount: 2
Layer: 0 1 "Atr+AOEA-s" 1
Layer: 1 1 "Fore" 0
XUID: [1021 661 -1112178752 4053643]
StyleMap: 0x0040
FSType: 8
OS2Version: 0
OS2_WeightWidthSlopeOnly: 0
OS2_UseTypoMetrics: 0
CreationTime: 1044218373
ModificationTime: 1728572926
PfmFamily: 17
TTFWeight: 400
TTFWidth: 5
LineGap: 67
VLineGap: 0
Panose: 2 0 0 0 0 0 0 0 0 0
OS2TypoAscent: 1491
OS2TypoAOffset: 0
OS2TypoDescent: -431
OS2TypoDOffset: 0
OS2TypoLinegap: 307
OS2WinAscent: 1854
OS2WinAOffset: 0
OS2WinDescent: 434
OS2WinDOffset: 0
HheadAscent: 1854
HheadAOffset: 0
HheadDescent: -434
HheadDOffset: 0
OS2SubXSize: 1434
OS2SubYSize: 1331
OS2SubXOff: 0
OS2SubYOff: 283
OS2SupXSize: 1434
OS2SupYSize: 1331
OS2SupXOff: 0
OS2SupYOff: 977
OS2StrikeYSize: 102
OS2StrikeYPos: 530
OS2Vendor: 'HL  '
OS2UnicodeRanges: 00000000.00000000.00000000.00000000
DEI: 91125
TtTable: prep
NPUSHB
 13
 9
 9
 8
 8
 7
 7
 6
 6
 1
 1
 0
 0
 1
SCANTYPE
PUSHW_1
 511
SCANCTRL
RCVT
ROUND[Grey]
WCVTP
RCVT
ROUND[Grey]
WCVTP
RCVT
ROUND[Grey]
WCVTP
RCVT
ROUND[Grey]
WCVTP
RCVT
ROUND[Grey]
WCVTP
RCVT
ROUND[Grey]
WCVTP
PUSHB_4
 3
 2
 70
 0
CALL
PUSHB_4
 5
 4
 70
 0
CALL
PUSHB_2
 2
 2
RCVT
ROUND[Grey]
WCVTP
PUSHB_2
 4
 4
RCVT
ROUND[Grey]
WCVTP
EndTTInstrs
TtTable: fpgm
NPUSHB
 1
 0
FDEF
SROUND
RCVT
DUP
PUSHB_1
 3
CINDEX
RCVT
SWAP
SUB
ROUND[Grey]
RTG
SWAP
ROUND[Grey]
ADD
WCVTP
ENDF
EndTTInstrs
ShortTable: cvt  28
  -1
  1855
  32
  142
  32
  160
  276
  367
  63
  176
  23418
  23418
  23418
  23418
  23418
  23418
  23418
  23418
  23418
  23418
  23418
  23418
  23418
  23418
  23418
  23418
  16
  18
EndShort
ShortTable: maxp 16
  1
  0
  251
  216
  22
  0
  0
  2
  8
  64
  10
  0
  181
  325
  1
  1
EndShort

StartChar: .notdef
Encoding: 65536 -1 0
Width: 1024
GlyphClass: 1
Flags: W
LayerCount: 2
Fore
SplineSet
128 0 m 1,0,-1
 128 1854 l 1,1,-1
 896 1854 l 1,2,-1
 896 0 l 1,3,-1
 128 0 l 1,0,-1
256 128 m 1,4,-1
 768 128 l 1,5,-1
 768 1726 l 1,6,-1
 256 1726 l 1,7,-1
 256 128 l 1,4,-1
EndSplineSet
EndChar

StartChar: .null
Encoding: 65537 -1 1
Width: 11008
GlyphClass: 1
Flags: W
LayerCount: 2
Fore
SplineSet
482 1530 m 1,0,-1
 865 1530 l 1,1,-1
 865 754 l 1,2,-1
 1299 1530 l 1,3,-1
 1739 1530 l 1,4,-1
 1433 238 l 1,5,-1
 1071 238 l 1,6,-1
 1224 860 l 1,7,-1
 880 238 l 1,8,-1
 634 238 l 1,9,-1
 633 852 l 1,10,-1
 344 -364 l 1,11,-1
 29 -364 l 1,12,-1
 482 1530 l 1,0,-1
537 80 m 1,13,-1
 429 -364 l 1,14,-1
 10373 -365 l 1,15,-1
 10245 80 l 1,16,-1
 537 80 l 1,13,-1
1902 1530 m 1,17,-1
 1826 1206 l 1,18,-1
 2730 1206 l 1,19,-1
 2806 1530 l 1,20,-1
 1902 1530 l 1,17,-1
1794 1078 m 1,21,-1
 1596 238 l 1,22,-1
 2500 238 l 1,23,-1
 2570 530 l 1,24,-1
 2030 530 l 1,25,-1
 2080 756 l 1,26,-1
 2622 756 l 1,27,-1
 2700 1078 l 1,28,-1
 1794 1078 l 1,21,-1
10110 754 m 1,29,-1
 10486 -366 l 1,30,-1
 10906 -366 l 1,31,-1
 10530 754 l 1,32,33
 10682 782 10682 782 10771 909 c 0,34,35
 10853 1028 10853 1028 10853 1188 c 0,36,37
 10853 1323 10853 1323 10790 1417 c 0,38,39
 10715 1528 10715 1528 10606 1528 c 2,40,-1
 9894 1528 l 1,41,-1
 9814 1202 l 1,42,-1
 10506 1202 l 1,43,44
 10550 1191 10550 1191 10550 1151 c 0,45,46
 10550 1116 10550 1116 10520.5 1095 c 128,-1,47
 10491 1074 10491 1074 10454 1074 c 2,48,-1
 9784 1074 l 1,49,-1
 9588 236 l 1,50,-1
 9988 236 l 1,51,-1
 10110 754 l 1,29,-1
2854 1206 m 1,52,-1
 2928 1530 l 1,53,-1
 3960 1530 l 1,54,-1
 3884 1206 l 1,55,-1
 3538 1206 l 1,56,-1
 3310 238 l 1,57,-1
 2952 238 l 1,58,-1
 3180 1206 l 1,59,-1
 2854 1206 l 1,52,-1
4056 1205 m 1,60,-1
 4220 1531 l 1,61,-1
 4656 1531 l 1,62,-1
 4672 1205 l 1,63,-1
 4056 1205 l 1,60,-1
3974 1077 m 1,64,-1
 3514 239 l 1,65,-1
 3874 239 l 1,66,-1
 4150 757 l 1,67,-1
 4374 757 l 1,68,-1
 4404 239 l 1,69,-1
 4792 239 l 1,70,-1
 4692 1077 l 1,71,-1
 3974 1077 l 1,64,-1
5155 1530 m 1,72,-1
 4851 238 l 1,73,-1
 5779 238 l 1,74,-1
 5847 526 l 1,75,-1
 5293 526 l 1,76,-1
 5531 1530 l 1,77,-1
 5155 1530 l 1,72,-1
6006 904 m 1,78,-1
 6275 238 l 1,79,-1
 7109 238 l 1,80,-1
 7309 1078 l 1,81,-1
 6671 1078 l 1,82,-1
 6625 758 l 1,83,-1
 6891 758 l 1,84,-1
 6837 526 l 1,85,-1
 6575 526 l 1,86,-1
 6416 893 l 1,87,-1
 6703 1206 l 1,88,-1
 7339 1206 l 1,89,-1
 7413 1530 l 1,90,-1
 6559 1530 l 1,91,-1
 6006 904 l 1,78,-1
7584 1529 m 1,92,-1
 7508 1205 l 1,93,-1
 8412 1205 l 1,94,-1
 8488 1529 l 1,95,-1
 7584 1529 l 1,92,-1
7476 1077 m 1,96,-1
 7278 237 l 1,97,-1
 8182 237 l 1,98,-1
 8252 529 l 1,99,-1
 7712 529 l 1,100,-1
 7762 755 l 1,101,-1
 8304 755 l 1,102,-1
 8382 1077 l 1,103,-1
 7476 1077 l 1,96,-1
8792 1203 m 1,104,-1
 8956 1529 l 1,105,-1
 9392 1529 l 1,106,-1
 9408 1203 l 1,107,-1
 8792 1203 l 1,104,-1
8710 1075 m 1,108,-1
 8250 237 l 1,109,-1
 8610 237 l 1,110,-1
 8886 755 l 1,111,-1
 9110 755 l 1,112,-1
 9140 237 l 1,113,-1
 9528 237 l 1,114,-1
 9428 1075 l 1,115,-1
 8710 1075 l 1,108,-1
10110 754 m 1,116,-1
 9988 236 l 1,117,-1
 10110 754 l 1,116,-1
3598 -82 m 1,118,-1
 3482 -81 l 1,119,120
 3471 -55 3471 -55 3410 -55 c 0,121,122
 3363 -55 3363 -55 3363 -73 c 0,123,124
 3363 -84 3363 -84 3407 -93 c 2,125,-1
 3483 -109 l 2,126,127
 3550 -123 3550 -123 3573 -153 c 0,128,129
 3585 -167 3585 -167 3585 -183 c 0,130,131
 3585 -236 3585 -236 3502 -262 c 0,132,133
 3446 -279 3446 -279 3378 -279 c 0,134,135
 3181 -279 3181 -279 3174 -186 c 1,136,-1
 3291 -187 l 1,137,138
 3309 -216 3309 -216 3379 -216 c 0,139,140
 3434 -216 3434 -216 3434 -196 c 0,141,142
 3434 -186 3434 -186 3419.5 -182 c 128,-1,143
 3405 -178 3405 -178 3364 -169 c 0,144,145
 3297 -155 3297 -155 3293 -154 c 0,146,147
 3249 -142 3249 -142 3230 -124 c 128,-1,148
 3211 -106 3211 -106 3211 -85 c 0,149,150
 3211 5 3211 5 3405 5 c 0,151,152
 3578 5 3578 5 3598 -82 c 1,118,-1
4388 -281 m 0,153,154
 4315 -281 4315 -281 4259 -257 c 0,155,156
 4185 -225 4185 -225 4185 -162 c 0,157,158
 4185 -81 4185 -81 4272 -37 c 0,159,160
 4341 -2 4341 -2 4430 -2 c 0,161,162
 4501 -2 4501 -2 4556 -26 c 0,163,164
 4629 -58 4629 -58 4629 -120 c 0,165,166
 4629 -201 4629 -201 4544 -245 c 0,167,168
 4476 -281 4476 -281 4388 -281 c 0,153,154
4389 -220 m 0,169,170
 4452 -220 4452 -220 4474 -151 c 0,171,172
 4485 -117 4485 -117 4485 -105 c 0,173,174
 4485 -64 4485 -64 4424 -64 c 0,175,176
 4381 -64 4381 -64 4355.5 -98.5 c 128,-1,177
 4330 -133 4330 -133 4330 -179 c 0,178,179
 4330 -220 4330 -220 4389 -220 c 0,169,170
5627 -212 m 1,180,-1
 5604 -279 l 1,181,-1
 5207 -279 l 1,182,-1
 5304 0 l 1,183,-1
 5481 0 l 1,184,-1
 5407 -212 l 1,185,-1
 5627 -212 l 1,180,-1
6472 -1 m 1,186,-1
 6372 -279 l 1,187,-1
 6202 -279 l 1,188,-1
 6302 -1 l 1,189,-1
 6472 -1 l 1,186,-1
7035 -279 m 1,190,-1
 7121 -1 l 1,191,-1
 7293 -1 l 2,192,193
 7355 -1 7355 -1 7394 -6 c 0,194,195
 7414 -8 7414 -8 7434 -10 c 0,196,197
 7457 -15 7457 -15 7469 -27 c 1,198,199
 7491 -39 7491 -39 7524 -68 c 1,200,201
 7543 -93 7543 -93 7543 -125 c 0,202,203
 7543 -209 7543 -209 7439 -251 c 0,204,205
 7372 -279 7372 -279 7224 -279 c 2,206,-1
 7035 -279 l 1,190,-1
7209 -216 m 1,207,-1
 7243 -216 l 2,208,209
 7337 -216 7337 -216 7369 -177 c 0,210,211
 7388 -154 7388 -154 7388 -122 c 0,212,213
 7388 -61 7388 -61 7301 -61 c 2,214,-1
 7257 -61 l 1,215,-1
 7209 -216 l 1,207,-1
EndSplineSet
EndChar

StartChar: exclam
Encoding: 33 33 4
Width: 645
GlyphClass: 1
Flags: W
LayerCount: 2
Fore
SplineSet
56 0 m 1,0,-1
 577 -1 l 1,1,-1
 646 277 l 1,2,-1
 120 277 l 1,3,-1
 56 0 l 1,0,-1
663 348 m 1,4,-1
 1015 1851 l 1,5,-1
 475 1851 l 1,6,-1
 137 348 l 1,7,-1
 663 348 l 1,4,-1
EndSplineSet
EndChar

StartChar: quotedbl
Encoding: 34 34 5
Width: 791
GlyphClass: 1
Flags: W
LayerCount: 2
Fore
SplineSet
66 1426 m 1,0,-1
 378 1426 l 1,1,-1
 479 1854 l 1,2,-1
 163 1854 l 1,3,-1
 66 1426 l 1,0,-1
426 1426 m 1,4,-1
 738 1426 l 1,5,-1
 839 1854 l 1,6,-1
 523 1854 l 1,7,-1
 426 1426 l 1,4,-1
EndSplineSet
EndChar

StartChar: numbersign
Encoding: 35 35 6
Width: 500
GlyphClass: 1
Flags: WO
LayerCount: 2
Back
SplineSet
63 0 m 1,0,-1
 63 1280 l 1,1,-1
 1087 1280 l 1,2,-1
 1087 0 l 1,3,-1
 63 0 l 1,0,-1
95 32 m 1,4,-1
 1055 32 l 1,5,-1
 1055 1248 l 1,6,-1
 95 1248 l 1,7,-1
 95 32 l 1,4,-1
EndSplineSet
Fore
SplineSet
128 512 m 1,0,-1
 894 515 l 1,1,-1
 894 383 l 1,2,-1
 127 384 l 1,3,-1
 128 512 l 1,0,-1
129 1024 m 1,4,-1
 896 1024 l 1,5,-1
 896 897 l 1,6,-1
 128 896 l 1,7,-1
 129 1024 l 1,4,-1
640 1152 m 1,8,-1
 768 1152 l 1,9,-1
 768 256 l 1,10,-1
 640 257 l 1,11,-1
 640 1152 l 1,8,-1
255 1152 m 1,12,-1
 384 1153 l 1,13,-1
 384 254 l 1,14,-1
 254 252 l 1,15,-1
 255 1152 l 1,12,-1
EndSplineSet
EndChar

StartChar: dollar
Encoding: 36 36 7
Width: 381
GlyphClass: 1
Flags: W
LayerCount: 2
Fore
SplineSet
909 -735 m 1,0,-1
 14791 -735 l 1,1,-1
 14640 -161 l 1,2,-1
 1030 -161 l 1,3,-1
 909 -735 l 1,0,-1
EndSplineSet
EndChar

StartChar: percent
Encoding: 37 37 8
Width: 2048
GlyphClass: 1
Flags: W
LayerCount: 2
Fore
SplineSet
894 1475 m 1,0,-1
 642 1178 l 5,1,-1
 351.702148438 1178 l 5,2,-1
 603.702148438 1475 l 1,3,-1
 894 1475 l 1,0,-1
1640 185 m 1,4,-1
 1828 467 l 1,5,-1
 1529.62402344 467 l 1,6,-1
 1336 185 l 1,7,-1
 1640 185 l 1,4,-1
1390 1475 m 1,8,-1
 1772 1475 l 1,9,10
 1772 1475 1772 1475 871 185 c 1,11,12
 422 185 422 185 422 185 c 1,13,-1
 1390 1475 l 1,8,-1
EndSplineSet
EndChar

StartChar: ampersand
Encoding: 38 38 9
Width: 5876
GlyphClass: 1
Flags: W
LayerCount: 2
Fore
SplineSet
345 1424 m 1,0,-1
 1672 1424 l 1,1,-1
 1765 1854 l 1,2,-1
 441 1854 l 1,3,-1
 345 1424 l 1,0,-1
204 790 m 1,4,-1
 934 790 l 1,5,-1
 873 516 l 1,6,-1
 144 517 l 1,7,-1
 30 0 l 1,8,-1
 1355 0 l 1,9,-1
 1636 1264 l 1,10,-1
 309 1264 l 1,11,-1
 204 790 l 1,4,-1
1831 1854 m 1,12,-1
 1735 1424 l 1,13,-1
 1831 1854 l 1,12,-1
1594 790 m 1,14,-1
 2324 790 l 1,15,-1
 2263 516 l 1,16,-1
 1534 517 l 1,17,-1
 1420 0 l 1,18,-1
 2745 0 l 1,19,-1
 3026 1264 l 1,20,-1
 1699 1264 l 1,21,-1
 1594 790 l 1,14,-1
4730 1424 m 1,22,-1
 6057 1424 l 1,23,-1
 6150 1854 l 1,24,-1
 4826 1854 l 1,25,-1
 4730 1424 l 1,22,-1
4589 790 m 1,26,-1
 5319 790 l 1,27,-1
 5258 516 l 1,28,-1
 4529 517 l 1,29,-1
 4415 0 l 1,30,-1
 5740 0 l 1,31,-1
 6021 1264 l 1,32,-1
 4694 1264 l 1,33,-1
 4589 790 l 1,26,-1
2816 1016 m 1,34,-1
 3145 0 l 1,35,-1
 3841 0 l 1,36,-1
 3676 -736 l 1,37,-1
 4168 -736 l 1,38,-1
 4613 1266 l 1,39,-1
 3744 1266 l 1,40,-1
 3638 789 l 1,41,-1
 4018 789 l 1,42,-1
 3958 515 l 1,43,-1
 3539 515 l 1,44,-1
 3405 985 l 1,45,-1
 3828 1423 l 1,46,-1
 4651 1423 l 1,47,-1
 4744 1854 l 1,48,-1
 3532 1853 l 1,49,-1
 2816 1016 l 1,34,-1
1735 1424 m 1,50,-1
 3062 1424 l 1,51,-1
 3155 1854 l 1,52,-1
 1831 1854 l 1,53,-1
 1735 1424 l 1,50,-1
EndSplineSet
EndChar

StartChar: quotesingle
Encoding: 39 39 10
Width: 660
GlyphClass: 1
Flags: W
LayerCount: 2
Fore
SplineSet
401 1426 m 1,0,-1
 713 1426 l 1,1,-1
 814 1854 l 1,2,-1
 498 1854 l 1,3,-1
 401 1426 l 1,0,-1
EndSplineSet
EndChar

StartChar: parenleft
Encoding: 40 40 11
Width: 500
GlyphClass: 1
Flags: W
LayerCount: 2
Fore
SplineSet
63 0 m 1,0,-1
 63 1280 l 1,1,-1
 1087 1280 l 1,2,-1
 1087 0 l 1,3,-1
 63 0 l 1,0,-1
95 32 m 1,4,-1
 1055 32 l 1,5,-1
 1055 1248 l 1,6,-1
 95 1248 l 1,7,-1
 95 32 l 1,4,-1
EndSplineSet
EndChar

StartChar: parenright
Encoding: 41 41 12
Width: 500
GlyphClass: 1
Flags: W
LayerCount: 2
Fore
SplineSet
63 0 m 1,0,-1
 63 1280 l 1,1,-1
 1087 1280 l 1,2,-1
 1087 0 l 1,3,-1
 63 0 l 1,0,-1
95 32 m 1,4,-1
 1055 32 l 1,5,-1
 1055 1248 l 1,6,-1
 95 1248 l 1,7,-1
 95 32 l 1,4,-1
EndSplineSet
EndChar

StartChar: asterisk
Encoding: 42 42 13
Width: 500
GlyphClass: 1
Flags: W
LayerCount: 2
Fore
SplineSet
63 0 m 1,0,-1
 63 1280 l 1,1,-1
 1087 1280 l 1,2,-1
 1087 0 l 1,3,-1
 63 0 l 1,0,-1
95 32 m 1,4,-1
 1055 32 l 1,5,-1
 1055 1248 l 1,6,-1
 95 1248 l 1,7,-1
 95 32 l 1,4,-1
EndSplineSet
EndChar

StartChar: plus
Encoding: 43 43 14
Width: 500
GlyphClass: 1
Flags: W
LayerCount: 2
Fore
SplineSet
63 0 m 1,0,-1
 63 1280 l 1,1,-1
 1087 1280 l 1,2,-1
 1087 0 l 1,3,-1
 63 0 l 1,0,-1
95 32 m 1,4,-1
 1055 32 l 1,5,-1
 1055 1248 l 1,6,-1
 95 1248 l 1,7,-1
 95 32 l 1,4,-1
EndSplineSet
EndChar

StartChar: comma
Encoding: 44 44 15
Width: 404
GlyphClass: 1
Flags: W
LayerCount: 2
Fore
SplineSet
49 -236 m 1,0,-1
 363 -236 l 1,1,-1
 465 197 l 1,2,-1
 148 197 l 1,3,-1
 49 -236 l 1,0,-1
EndSplineSet
EndChar

StartChar: hyphen
Encoding: 45 45 16
AltUni2: 002010.ffffffff.0 002010.ffffffff.0
Width: 1715
GlyphClass: 1
Flags: W
LayerCount: 2
Fore
SplineSet
322 802 m 1,0,-1
 1636 802 l 1,1,-1
 1745 1266 l 1,2,-1
 428 1266 l 1,3,-1
 322 802 l 1,0,-1
EndSplineSet
EndChar

StartChar: period
Encoding: 46 46 17
Width: 363
GlyphClass: 1
Flags: W
LayerCount: 2
Fore
SplineSet
49 -1 m 1,0,-1
 310 -1 l 1,1,-1
 376 277 l 1,2,-1
 113 277 l 1,3,-1
 49 -1 l 1,0,-1
EndSplineSet
EndChar

StartChar: slash
Encoding: 47 47 18
Width: 357
GlyphClass: 1
Flags: W
LayerCount: 2
Fore
SplineSet
-33 -97 m 1,0,-1
 550 -99 l 1,1,-1
 1035 1982 l 1,2,-1
 436 1982 l 1,3,-1
 -33 -97 l 1,0,-1
EndSplineSet
EndChar

StartChar: zero
Encoding: 48 48 19
Width: 500
GlyphClass: 1
Flags: W
LayerCount: 2
Fore
SplineSet
63 0 m 1,0,-1
 63 1280 l 1,1,-1
 1087 1280 l 1,2,-1
 1087 0 l 1,3,-1
 63 0 l 1,0,-1
95 32 m 1,4,-1
 1055 32 l 1,5,-1
 1055 1248 l 1,6,-1
 95 1248 l 1,7,-1
 95 32 l 1,4,-1
EndSplineSet
EndChar

StartChar: one
Encoding: 49 49 20
Width: 779
GlyphClass: 1
Flags: W
LayerCount: 2
Fore
SplineSet
104 -1 m 1,0,-1
 627 -1 l 1,1,-1
 1090 1854 l 1,2,-1
 527 1854 l 1,3,-1
 104 -1 l 1,0,-1
EndSplineSet
EndChar

StartChar: two
Encoding: 50 50 21
Width: 1460
GlyphClass: 1
Flags: W
LayerCount: 2
Fore
SplineSet
406 1426 m 1,0,-1
 1193 1426 l 1,1,-1
 1156 1265 l 1,2,-1
 383 1265 l 1,3,-1
 96 -1 l 1,4,-1
 1360 -1 l 1,5,-1
 1484 520 l 1,6,-1
 714 520 l 1,7,-1
 794 794 l 1,8,-1
 1540 794 l 1,9,-1
 1814 1864 l 1,10,-1
 509 1864 l 1,11,-1
 406 1426 l 1,0,-1
EndSplineSet
EndChar

StartChar: three
Encoding: 51 51 22
Width: 1413
GlyphClass: 1
Flags: W
LayerCount: 2
Fore
SplineSet
388 1425 m 1,0,-1
 1161 1424 l 1,1,-1
 1115 1265 l 1,2,-1
 365 1265 l 1,3,-1
 263 789 l 1,4,-1
 976 789 l 1,5,-1
 896 516 l 1,6,-1
 205 516 l 1,7,-1
 81 -1 l 1,8,-1
 1317 -1 l 1,9,-1
 1783 1854 l 1,10,-1
 487 1854 l 1,11,-1
 388 1425 l 1,0,-1
EndSplineSet
EndChar

StartChar: four
Encoding: 52 52 23
Width: 500
GlyphClass: 1
Flags: W
LayerCount: 2
Fore
SplineSet
63 0 m 1,0,-1
 63 1280 l 1,1,-1
 1087 1280 l 1,2,-1
 1087 0 l 1,3,-1
 63 0 l 1,0,-1
95 32 m 1,4,-1
 1055 32 l 1,5,-1
 1055 1248 l 1,6,-1
 95 1248 l 1,7,-1
 95 32 l 1,4,-1
EndSplineSet
EndChar

StartChar: five
Encoding: 53 53 24
Width: 1355
GlyphClass: 1
Flags: W
LayerCount: 2
Fore
SplineSet
365 1425 m 1,0,-1
 1646 1424 l 1,1,-1
 1760 1854 l 1,2,-1
 464 1854 l 1,3,-1
 365 1425 l 1,0,-1
240 789 m 1,4,-1
 953 789 l 1,5,-1
 873 516 l 1,6,-1
 182 516 l 1,7,-1
 58 -1 l 1,8,-1
 1294 -1 l 1,9,-1
 1614 1265 l 1,10,-1
 342 1265 l 1,11,-1
 240 789 l 1,4,-1
EndSplineSet
EndChar

StartChar: six
Encoding: 54 54 25
Width: 1649
GlyphClass: 1
Flags: W
LayerCount: 2
Fore
SplineSet
52 1016 m 1,0,-1
 380 -1 l 1,1,-1
 1575 -1 l 1,2,-1
 1849 1266 l 1,3,-1
 919 1266 l 1,4,-1
 1063 1426 l 1,5,-1
 1882 1426 l 1,6,-1
 1994 1853 l 1,7,-1
 768 1853 l 1,8,-1
 52 1016 l 1,0,-1
1206 743 m 1,9,-1
 1157 478 l 1,10,-1
 768 478 l 1,11,-1
 709 744 l 1,12,-1
 1206 743 l 1,9,-1
EndSplineSet
EndChar

StartChar: seven
Encoding: 55 55 26
Width: 500
GlyphClass: 1
Flags: W
LayerCount: 2
Fore
SplineSet
63 0 m 1,0,-1
 63 1280 l 1,1,-1
 1087 1280 l 1,2,-1
 1087 0 l 1,3,-1
 63 0 l 1,0,-1
95 32 m 1,4,-1
 1055 32 l 1,5,-1
 1055 1248 l 1,6,-1
 95 1248 l 1,7,-1
 95 32 l 1,4,-1
EndSplineSet
EndChar

StartChar: eight
Encoding: 56 56 27
Width: 500
GlyphClass: 1
Flags: W
LayerCount: 2
Fore
SplineSet
63 0 m 1,0,-1
 63 1280 l 1,1,-1
 1087 1280 l 1,2,-1
 1087 0 l 1,3,-1
 63 0 l 1,0,-1
95 32 m 1,4,-1
 1055 32 l 1,5,-1
 1055 1248 l 1,6,-1
 95 1248 l 1,7,-1
 95 32 l 1,4,-1
EndSplineSet
EndChar

StartChar: nine
Encoding: 57 57 28
Width: 500
GlyphClass: 1
Flags: W
LayerCount: 2
Fore
SplineSet
63 0 m 1,0,-1
 63 1280 l 1,1,-1
 1087 1280 l 1,2,-1
 1087 0 l 1,3,-1
 63 0 l 1,0,-1
95 32 m 1,4,-1
 1055 32 l 1,5,-1
 1055 1248 l 1,6,-1
 95 1248 l 1,7,-1
 95 32 l 1,4,-1
EndSplineSet
EndChar

StartChar: colon
Encoding: 58 58 29
Width: 500
GlyphClass: 1
Flags: W
LayerCount: 2
Fore
SplineSet
63 0 m 1,0,-1
 63 1280 l 1,1,-1
 1087 1280 l 1,2,-1
 1087 0 l 1,3,-1
 63 0 l 1,0,-1
95 32 m 1,4,-1
 1055 32 l 1,5,-1
 1055 1248 l 1,6,-1
 95 1248 l 1,7,-1
 95 32 l 1,4,-1
EndSplineSet
EndChar

StartChar: semicolon
Encoding: 59 59 30
Width: 500
GlyphClass: 1
Flags: W
LayerCount: 2
Fore
SplineSet
63 0 m 1,0,-1
 63 1280 l 1,1,-1
 1087 1280 l 1,2,-1
 1087 0 l 1,3,-1
 63 0 l 1,0,-1
95 32 m 1,4,-1
 1055 32 l 1,5,-1
 1055 1248 l 1,6,-1
 95 1248 l 1,7,-1
 95 32 l 1,4,-1
EndSplineSet
EndChar

StartChar: less
Encoding: 60 60 31
Width: 500
GlyphClass: 1
Flags: W
LayerCount: 2
Fore
SplineSet
63 0 m 1,0,-1
 63 1280 l 1,1,-1
 1087 1280 l 1,2,-1
 1087 0 l 1,3,-1
 63 0 l 1,0,-1
95 32 m 1,4,-1
 1055 32 l 1,5,-1
 1055 1248 l 1,6,-1
 95 1248 l 1,7,-1
 95 32 l 1,4,-1
EndSplineSet
EndChar

StartChar: equal
Encoding: 61 61 32
Width: 500
GlyphClass: 1
Flags: W
LayerCount: 2
Fore
SplineSet
63 0 m 1,0,-1
 63 1280 l 1,1,-1
 1087 1280 l 1,2,-1
 1087 0 l 1,3,-1
 63 0 l 1,0,-1
95 32 m 1,4,-1
 1055 32 l 1,5,-1
 1055 1248 l 1,6,-1
 95 1248 l 1,7,-1
 95 32 l 1,4,-1
EndSplineSet
EndChar

StartChar: greater
Encoding: 62 62 33
Width: 500
GlyphClass: 1
Flags: W
LayerCount: 2
Fore
SplineSet
63 0 m 1,0,-1
 63 1280 l 1,1,-1
 1087 1280 l 1,2,-1
 1087 0 l 1,3,-1
 63 0 l 1,0,-1
95 32 m 1,4,-1
 1055 32 l 1,5,-1
 1055 1248 l 1,6,-1
 95 1248 l 1,7,-1
 95 32 l 1,4,-1
EndSplineSet
EndChar

StartChar: question
Encoding: 63 63 34
Width: 1439
GlyphClass: 1
Flags: W
LayerCount: 2
Fore
SplineSet
318 1422 m 1,0,-1
 1281 1419 l 1,1,-1
 1317 1408 l 1,2,-1
 1350 1386 l 1,3,-1
 1364 1356 l 1,4,-1
 1364 1332 l 1,5,-1
 1350 1301 l 1,6,-1
 1323 1285 l 1,7,-1
 1289 1271 l 1,8,-1
 1226 1262 l 1,9,-1
 294 1262 l 1,10,-1
 92 274 l 1,11,-1
 634 274 l 1,12,-1
 747 777 l 1,13,-1
 1303 777 l 1,14,15
 1453 800 1453 800 1547 868 c 0,16,17
 1805 1055 1805 1055 1805 1380 c 0,18,19
 1805 1479 1805 1479 1782 1590 c 1,20,-1
 1765 1637 l 1,21,22
 1680 1795 1680 1795 1579 1827 c 0,23,24
 1497 1853 1497 1853 1375 1853 c 2,25,-1
 413 1853 l 1,26,-1
 318 1422 l 1,0,-1
86 246 m 1,27,-1
 28 0 l 1,28,-1
 573 0 l 1,29,-1
 628 246 l 1,30,-1
 86 246 l 1,27,-1
EndSplineSet
EndChar

StartChar: at
Encoding: 64 64 35
Width: 500
GlyphClass: 1
Flags: W
LayerCount: 2
Fore
SplineSet
63 0 m 1,0,-1
 63 1280 l 1,1,-1
 1087 1280 l 1,2,-1
 1087 0 l 1,3,-1
 63 0 l 1,0,-1
95 32 m 1,4,-1
 1055 32 l 1,5,-1
 1055 1248 l 1,6,-1
 95 1248 l 1,7,-1
 95 32 l 1,4,-1
EndSplineSet
EndChar

StartChar: A
Encoding: 65 65 36
Width: 1553
GlyphClass: 1
Flags: W
LayerCount: 2
Fore
SplineSet
384 1210 m 1,0,-1
 -297 -1 l 1,1,-1
 348 -1 l 1,2,-1
 738 750 l 1,3,-1
 928 750 l 1,4,-1
 992 0 l 1,5,-1
 1599 0 l 1,6,-1
 1428 1263 l 1,7,-1
 420 1263 l 1,8,-1
 384 1210 l 1,0,-1
482 1428 m 1,9,-1
 722 1855 l 1,10,-1
 1336 1855 l 1,11,-1
 1405 1428 l 1,12,-1
 482 1428 l 1,9,-1
EndSplineSet
EndChar

StartChar: B
Encoding: 66 66 37
Width: 1648
GlyphClass: 1
Flags: W
LayerCount: 2
Fore
SplineSet
69 1015 m 1,0,-1
 397 -1 l 1,1,-1
 1592 -1 l 1,2,-1
 2010 1855 l 1,3,-1
 786 1855 l 1,4,-1
 69 1015 l 1,0,-1
1055 1403 m 1,5,-1
 1357 1403 l 1,6,-1
 1330 1224 l 1,7,-1
 878 1224 l 1,8,-1
 1055 1403 l 1,5,-1
1225 740 m 1,9,-1
 1173 478 l 1,10,-1
 785 478 l 1,11,-1
 722 740 l 1,12,-1
 1225 740 l 1,9,-1
EndSplineSet
EndChar

StartChar: C
Encoding: 67 67 38
Width: 1649
GlyphClass: 1
Flags: W
LayerCount: 2
Fore
SplineSet
52 1016 m 1,0,-1
 380 -1 l 1,1,-1
 1575 -1 l 1,2,-1
 1674 478 l 1,3,-1
 768 478 l 1,4,-1
 648 955 l 1,5,-1
 1063 1426 l 1,6,-1
 1882 1426 l 1,7,-1
 1994 1853 l 1,8,-1
 768 1853 l 1,9,-1
 52 1016 l 1,0,-1
EndSplineSet
EndChar

StartChar: D
Encoding: 68 68 39
Width: 1506
GlyphClass: 1
Flags: W
LayerCount: 2
Fore
SplineSet
523 1855 m 1,0,-1
 1643 1855 l 1,1,-1
 1993 982 l 1,2,-1
 1456 -1 l 1,3,-1
 105 0 l 1,4,-1
 523 1855 l 1,0,-1
627 484 m 1,5,-1
 1197 484 l 1,6,-1
 1495 988 l 1,7,-1
 1293 1426 l 1,8,-1
 841 1425 l 1,9,-1
 627 484 l 1,5,-1
EndSplineSet
EndChar

StartChar: E
Encoding: 69 69 40
Width: 1384
GlyphClass: 1
Flags: W
LayerCount: 2
Fore
SplineSet
370 1427 m 1,0,-1
 1663 1427 l 1,1,-1
 1760 1854 l 1,2,-1
 466 1854 l 1,3,-1
 370 1427 l 1,0,-1
56 -1 m 1,4,-1
 1349 0 l 1,5,-1
 1464 523 l 1,6,-1
 675 523 l 1,7,-1
 737 796 l 1,8,-1
 1527 796 l 1,9,-1
 1627 1266 l 1,10,-1
 337 1266 l 1,11,-1
 56 -1 l 1,4,-1
EndSplineSet
EndChar

StartChar: F
Encoding: 70 70 41
Width: 1328
GlyphClass: 1
Flags: W
LayerCount: 2
Fore
SplineSet
373 1427 m 1,0,-1
 1690 1427 l 1,1,-1
 1783 1855 l 1,2,-1
 467 1853 l 1,3,-1
 373 1427 l 1,0,-1
56 -2 m 1,4,-1
 536 -2 l 1,5,-1
 711 791 l 1,6,-1
 1548 791 l 1,7,-1
 1654 1266 l 1,8,-1
 337 1266 l 1,9,-1
 56 -2 l 1,4,-1
EndSplineSet
EndChar

StartChar: G
Encoding: 71 71 42
Width: 1649
GlyphClass: 1
Flags: W
LayerCount: 2
Fore
SplineSet
52 1016 m 1,0,-1
 381 0 l 1,1,-1
 1077 0 l 1,2,-1
 912 -736 l 1,3,-1
 1404 -736 l 1,4,-1
 1849 1266 l 1,5,-1
 980 1266 l 1,6,-1
 874 789 l 1,7,-1
 1251 790 l 1,8,-1
 1191 516 l 1,9,-1
 775 515 l 1,10,-1
 641 985 l 1,11,-1
 1064 1423 l 1,12,-1
 1887 1423 l 1,13,-1
 1980 1854 l 1,14,-1
 768 1853 l 1,15,-1
 52 1016 l 1,0,-1
EndSplineSet
EndChar

StartChar: H
Encoding: 72 72 43
Width: 1472
GlyphClass: 1
Flags: W
LayerCount: 2
Fore
SplineSet
74 0 m 1,0,-1
 590 -1 l 1,1,-1
 750 716 l 1,2,-1
 1028 716 l 1,3,-1
 868 -2 l 1,4,-1
 1417 -2 l 1,5,-1
 1829 1854 l 1,6,-1
 1280 1854 l 1,7,-1
 1151 1263 l 1,8,-1
 873 1263 l 1,9,-1
 1002 1854 l 1,10,-1
 485 1854 l 1,11,-1
 74 0 l 1,0,-1
EndSplineSet
EndChar

StartChar: I
Encoding: 73 73 44
Width: 640
GlyphClass: 1
Flags: W
LayerCount: 2
Fore
SplineSet
893 1428 m 1,0,-1
 989 1853 l 1,1,-1
 466 1853 l 1,2,-1
 371 1428 l 1,3,-1
 893 1428 l 1,0,-1
55 -1 m 1,4,-1
 578 -1 l 1,5,-1
 857 1265 l 1,6,-1
 335 1265 l 1,7,-1
 55 -1 l 1,4,-1
EndSplineSet
EndChar

StartChar: J
Encoding: 74 74 45
Width: 1353
GlyphClass: 1
Flags: W
LayerCount: 2
Fore
SplineSet
200 1427 m 1,0,-1
 662 1427 l 1,1,-1
 346 1 l 1,2,-1
 95 -363 l 1,3,-1
 647 -363 l 1,4,-1
 892 1 l 1,5,-1
 1206 1424 l 1,6,-1
 1662 1424 l 1,7,-1
 1758 1856 l 1,8,-1
 294 1856 l 1,9,-1
 200 1427 l 1,0,-1
EndSplineSet
EndChar

StartChar: K
Encoding: 75 75 46
Width: 1711
GlyphClass: 1
Flags: W
LayerCount: 2
Fore
SplineSet
50 -1 m 1,0,-1
 575 -1 l 1,1,-1
 986 1854 l 1,2,-1
 461 1854 l 1,3,-1
 50 -1 l 1,0,-1
812 1018 m 1,4,-1
 1136 0 l 1,5,-1
 1661 0 l 1,6,-1
 1397 985 l 1,7,-1
 2118 1855 l 1,8,-1
 1524 1855 l 1,9,-1
 812 1018 l 1,4,-1
EndSplineSet
EndChar

StartChar: L
Encoding: 76 76 47
Width: 1428
GlyphClass: 1
Flags: W
LayerCount: 2
Fore
SplineSet
84 0 m 1,0,-1
 1373 0 l 1,1,-1
 1479 479 l 1,2,-1
 712 478 l 1,3,-1
 1018 1854 l 1,4,-1
 496 1854 l 1,5,-1
 84 0 l 1,0,-1
EndSplineSet
EndChar

StartChar: M
Encoding: 77 77 48
Width: 1981
GlyphClass: 1
Flags: W
LayerCount: 2
Fore
SplineSet
-86 -730 m 1,0,-1
 485 1854 l 1,1,-1
 1075 1855 l 1,2,-1
 1077 869 l 1,3,-1
 1658 1855 l 1,4,-1
 2303 1854 l 1,5,-1
 1893 -2 l 1,6,-1
 1339 -2 l 1,7,-1
 1508 749 l 1,8,-1
 1116 -2 l 1,9,-1
 727 -2 l 1,10,-1
 726 726 l 1,11,-1
 404 -733 l 1,12,-1
 -86 -730 l 1,0,-1
EndSplineSet
EndChar

StartChar: N
Encoding: 78 78 49
Width: 1563
GlyphClass: 1
Flags: W
LayerCount: 2
Fore
SplineSet
51 0 m 1,0,-1
 461 1854 l 1,1,-1
 1087 1854 l 1,2,-1
 1265 1078 l 1,3,-1
 1438 1855 l 1,4,-1
 1919 1854 l 1,5,-1
 1507 -1 l 1,6,-1
 1027 0 l 1,7,-1
 723 781 l 1,8,-1
 549 0 l 1,9,-1
 51 0 l 1,0,-1
EndSplineSet
EndChar

StartChar: O
Encoding: 79 79 50
Width: 1355
GlyphClass: 1
Flags: W
LayerCount: 2
Fore
SplineSet
374 1425 m 1,0,-1
 1611 1425 l 1,1,-1
 1704 1854 l 1,2,-1
 470 1854 l 1,3,-1
 374 1425 l 1,0,-1
58 -1 m 1,4,-1
 1294 -1 l 1,5,-1
 1575 1265 l 1,6,-1
 1137 1265 l 1,7,-1
 971 517 l 1,8,-1
 626 517 l 1,9,-1
 794 1265 l 1,10,-1
 338 1265 l 1,11,-1
 58 -1 l 1,4,-1
EndSplineSet
EndChar

StartChar: P
Encoding: 80 80 51
Width: 1545
GlyphClass: 1
Flags: W
LayerCount: 2
Fore
SplineSet
375 1422 m 1,0,-1
 1309 1419 l 1,1,-1
 1345 1408 l 1,2,-1
 1378 1386 l 1,3,-1
 1392 1356 l 1,4,-1
 1392 1342 l 1,5,-1
 1378 1311 l 1,6,-1
 1351 1295 l 1,7,-1
 1318 1281 l 1,8,-1
 1254 1272 l 1,9,-1
 342 1271 l 1,10,-1
 59 0 l 1,11,-1
 596 0 l 1,12,-1
 768 778 l 1,13,-1
 1331 777 l 1,14,15
 1481 800 1481 800 1575 868 c 0,16,17
 1833 1055 1833 1055 1833 1380 c 0,18,19
 1833 1479 1833 1479 1810 1590 c 1,20,-1
 1793 1637 l 1,21,22
 1708 1795 1708 1795 1607 1827 c 0,23,24
 1525 1853 1525 1853 1403 1853 c 2,25,-1
 471 1854 l 1,26,-1
 375 1422 l 1,0,-1
EndSplineSet
EndChar

StartChar: Q
Encoding: 81 81 52
Width: 1939
GlyphClass: 1
Flags: W
LayerCount: 2
Fore
SplineSet
104 1013 m 1,0,-1
 830 1854 l 1,1,-1
 1550 1854 l 1,2,-1
 1905 977 l 1,3,-1
 1704 584 l 1,4,-1
 1910 -1 l 1,5,-1
 1481 -1 l 1,6,-1
 1432 123 l 1,7,-1
 1363 -1 l 1,8,-1
 433 0 l 1,9,-1
 104 1013 l 1,0,-1
566 892 m 1,10,-1
 714 452 l 1,11,-1
 1074 452 l 1,12,-1
 1432 1024 l 1,13,-1
 1258 1426 l 1,14,-1
 987 1426 l 1,15,-1
 566 892 l 1,10,-1
EndSplineSet
EndChar

StartChar: R
Encoding: 82 82 53
Width: 1701
GlyphClass: 1
Flags: W
LayerCount: 2
Fore
SplineSet
414 1430 m 1,0,-1
 1357 1426 l 1,1,-1
 1393 1415 l 1,2,-1
 1426 1393 l 1,3,-1
 1440 1363 l 1,4,-1
 1440 1338 l 1,5,-1
 1426 1308 l 1,6,-1
 1399 1291 l 1,7,-1
 1366 1278 l 1,8,-1
 1302 1269 l 1,9,-1
 381 1270 l 1,10,-1
 99 -2 l 1,11,-1
 634 -2 l 1,12,-1
 819 782 l 1,13,-1
 1300 -733 l 1,14,-1
 1847 -733 l 1,15,-1
 1380 804 l 1,16,-1
 1588 893 l 1,17,18
 1849 1042 1849 1042 1849 1355 c 0,19,20
 1849 1475 1849 1475 1812 1615 c 0,21,22
 1758 1819 1758 1819 1530 1844 c 2,23,-1
 1437 1854 l 1,24,-1
 515 1854 l 1,25,-1
 414 1430 l 1,0,-1
EndSplineSet
EndChar

StartChar: S
Encoding: 83 83 54
Width: 1355
GlyphClass: 1
Flags: W
LayerCount: 2
Fore
SplineSet
345 1424 m 1,0,-1
 1672 1424 l 1,1,-1
 1765 1854 l 1,2,-1
 441 1854 l 1,3,-1
 345 1424 l 1,0,-1
204 790 m 1,4,-1
 934 790 l 1,5,-1
 873 516 l 1,6,-1
 144 517 l 1,7,-1
 30 0 l 1,8,-1
 1355 0 l 1,9,-1
 1636 1264 l 1,10,-1
 309 1264 l 1,11,-1
 204 790 l 1,4,-1
EndSplineSet
EndChar

StartChar: T
Encoding: 84 84 55
Width: 1558
GlyphClass: 1
Flags: W
LayerCount: 2
Fore
SplineSet
805 1266 m 1,0,-1
 523 0 l 1,1,-1
 1069 0 l 1,2,-1
 1348 1266 l 1,3,-1
 805 1266 l 1,0,-1
364 1425 m 1,4,-1
 1852 1425 l 1,5,-1
 1947 1854 l 1,6,-1
 460 1854 l 1,7,-1
 364 1425 l 1,4,-1
EndSplineSet
EndChar

StartChar: U
Encoding: 85 85 56
Width: 1355
GlyphClass: 1
Flags: W
LayerCount: 2
Fore
SplineSet
58 -1 m 1,0,-1
 1346 0 l 1,1,-1
 1627 1265 l 1,2,-1
 1124 1265 l 1,3,-1
 959 519 l 1,4,-1
 674 519 l 1,5,-1
 837 1265 l 1,6,-1
 338 1265 l 1,7,-1
 58 -1 l 1,0,-1
1158 1425 m 1,8,-1
 1663 1426 l 1,9,-1
 1756 1855 l 1,10,-1
 1254 1854 l 1,11,-1
 1158 1425 l 1,8,-1
374 1425 m 1,12,-1
 877 1426 l 1,13,-1
 969 1854 l 1,14,-1
 470 1854 l 1,15,-1
 374 1425 l 1,12,-1
EndSplineSet
EndChar

StartChar: V
Encoding: 86 86 57
Width: 1440
GlyphClass: 1
Flags: W
LayerCount: 2
Fore
SplineSet
483 1854 m 1,0,-1
 931 1854 l 1,1,-1
 978 1427 l 1,2,-1
 530 1426 l 1,3,-1
 483 1854 l 1,0,-1
997 1265 m 1,4,-1
 1041 886 l 1,5,-1
 1192 1266 l 1,6,-1
 1681 1266 l 1,7,-1
 1218 0 l 1,8,-1
 685 0 l 1,9,-1
 547 1265 l 1,10,-1
 997 1265 l 1,4,-1
1255 1425 m 1,11,-1
 1429 1854 l 1,12,-1
 1894 1854 l 1,13,-1
 1733 1424 l 1,14,-1
 1255 1425 l 1,11,-1
EndSplineSet
EndChar

StartChar: W
Encoding: 87 87 58
Width: 2203
GlyphClass: 1
Flags: W
LayerCount: 2
Fore
SplineSet
148 1854 m 1,0,-1
 760 1854 l 1,1,-1
 852 1429 l 1,2,-1
 253 1428 l 1,3,-1
 148 1854 l 1,0,-1
1113 1854 m 1,4,-1
 1726 1854 l 1,5,-1
 1821 1426 l 1,6,-1
 1014 1426 l 1,7,-1
 1113 1854 l 1,4,-1
1979 1424 m 1,8,-1
 2073 1854 l 1,9,-1
 2562 1854 l 1,10,-1
 2464 1424 l 1,11,-1
 1979 1424 l 1,8,-1
1861 1268 m 1,12,-1
 1902 1087 l 1,13,-1
 1943 1266 l 1,14,-1
 2429 1266 l 1,15,-1
 2150 0 l 1,16,-1
 1591 0 l 1,17,-1
 1369 835 l 1,18,-1
 1185 0 l 1,19,-1
 625 0 l 1,20,-1
 302 1265 l 1,21,-1
 896 1266 l 1,22,-1
 937 1087 l 1,23,-1
 979 1268 l 1,24,-1
 1861 1268 l 1,12,-1
EndSplineSet
EndChar

StartChar: X
Encoding: 88 88 59
Width: 1498
GlyphClass: 1
Flags: W
LayerCount: 2
Fore
SplineSet
35 1855 m 1,0,-1
 378 982 l 1,1,-1
 -164 -1 l 1,2,-1
 471 -1 l 1,3,-1
 830 589 l 1,4,-1
 1049 -1 l 1,5,-1
 1715 -1 l 1,6,-1
 1396 1011 l 1,7,-1
 2107 1855 l 1,8,-1
 1416 1855 l 1,9,-1
 943 1262 l 1,10,-1
 699 1855 l 1,11,-1
 35 1855 l 1,0,-1
EndSplineSet
EndChar

StartChar: Y
Encoding: 89 89 60
Width: 1105
GlyphClass: 1
Flags: W
LayerCount: 2
Fore
SplineSet
478 -1 m 1,0,-1
 999 -1 l 1,1,-1
 1410 1854 l 1,2,-1
 892 1854 l 1,3,-1
 754 1241 l 1,4,-1
 651 1854 l 1,5,-1
 79 1854 l 1,6,-1
 320 796 l 1,7,-1
 654 796 l 1,8,-1
 478 -1 l 1,0,-1
EndSplineSet
EndChar

StartChar: Z
Encoding: 90 90 61
Width: 1379
GlyphClass: 1
Flags: W
LayerCount: 2
Fore
SplineSet
379 1425 m 1,0,-1
 1632 1425 l 1,1,-1
 1726 1854 l 1,2,-1
 473 1853 l 1,3,-1
 379 1425 l 1,0,-1
61 -1 m 1,4,-1
 1316 -1 l 1,5,-1
 1431 517 l 1,6,-1
 675 517 l 1,7,-1
 1491 785 l 1,8,-1
 1596 1265 l 1,9,-1
 1162 1265 l 1,10,-1
 298 1059 l 1,11,-1
 61 -1 l 1,4,-1
EndSplineSet
EndChar

StartChar: bracketleft
Encoding: 91 91 62
Width: 500
GlyphClass: 1
Flags: W
LayerCount: 2
Fore
SplineSet
63 0 m 1,0,-1
 63 1280 l 1,1,-1
 1087 1280 l 1,2,-1
 1087 0 l 1,3,-1
 63 0 l 1,0,-1
95 32 m 1,4,-1
 1055 32 l 1,5,-1
 1055 1248 l 1,6,-1
 95 1248 l 1,7,-1
 95 32 l 1,4,-1
EndSplineSet
EndChar

StartChar: backslash
Encoding: 92 92 63
Width: 500
GlyphClass: 1
Flags: W
LayerCount: 2
Fore
SplineSet
63 0 m 1,0,-1
 63 1280 l 1,1,-1
 1087 1280 l 1,2,-1
 1087 0 l 1,3,-1
 63 0 l 1,0,-1
95 32 m 1,4,-1
 1055 32 l 1,5,-1
 1055 1248 l 1,6,-1
 95 1248 l 1,7,-1
 95 32 l 1,4,-1
EndSplineSet
EndChar

StartChar: bracketright
Encoding: 93 93 64
Width: 500
GlyphClass: 1
Flags: W
LayerCount: 2
Fore
SplineSet
63 0 m 1,0,-1
 63 1280 l 1,1,-1
 1087 1280 l 1,2,-1
 1087 0 l 1,3,-1
 63 0 l 1,0,-1
95 32 m 1,4,-1
 1055 32 l 1,5,-1
 1055 1248 l 1,6,-1
 95 1248 l 1,7,-1
 95 32 l 1,4,-1
EndSplineSet
EndChar

StartChar: asciicircum
Encoding: 94 94 65
Width: 500
GlyphClass: 1
Flags: W
LayerCount: 2
Fore
SplineSet
63 0 m 1,0,-1
 63 1280 l 1,1,-1
 1087 1280 l 1,2,-1
 1087 0 l 1,3,-1
 63 0 l 1,0,-1
95 32 m 1,4,-1
 1055 32 l 1,5,-1
 1055 1248 l 1,6,-1
 95 1248 l 1,7,-1
 95 32 l 1,4,-1
EndSplineSet
EndChar

StartChar: underscore
Encoding: 95 95 66
Width: 866
GlyphClass: 1
Flags: W
LayerCount: 2
Fore
SplineSet
43 0 m 1,0,-1
 826 0 l 1,1,-1
 891 276 l 1,2,-1
 106 276 l 1,3,-1
 43 0 l 1,0,-1
EndSplineSet
EndChar

StartChar: grave
Encoding: 96 96 67
Width: 500
GlyphClass: 1
Flags: W
LayerCount: 2
Fore
SplineSet
63 0 m 1,0,-1
 63 1280 l 1,1,-1
 1087 1280 l 1,2,-1
 1087 0 l 1,3,-1
 63 0 l 1,0,-1
95 32 m 1,4,-1
 1055 32 l 1,5,-1
 1055 1248 l 1,6,-1
 95 1248 l 1,7,-1
 95 32 l 1,4,-1
EndSplineSet
EndChar

StartChar: a
Encoding: 97 97 68
Width: 1553
GlyphClass: 1
Flags: W
LayerCount: 2
Fore
SplineSet
384 1210 m 1,0,-1
 -297 -1 l 1,1,-1
 348 -1 l 1,2,-1
 738 750 l 1,3,-1
 928 750 l 1,4,-1
 992 0 l 1,5,-1
 1599 0 l 1,6,-1
 1428 1263 l 1,7,-1
 420 1263 l 1,8,-1
 384 1210 l 1,0,-1
482 1428 m 1,9,-1
 722 1855 l 1,10,-1
 1336 1855 l 1,11,-1
 1405 1428 l 1,12,-1
 482 1428 l 1,9,-1
EndSplineSet
EndChar

StartChar: b
Encoding: 98 98 69
Width: 1648
GlyphClass: 1
Flags: W
LayerCount: 2
Fore
SplineSet
69 1015 m 1,0,-1
 397 -1 l 1,1,-1
 1592 -1 l 1,2,-1
 2010 1855 l 1,3,-1
 786 1855 l 1,4,-1
 69 1015 l 1,0,-1
1055 1403 m 1,5,-1
 1357 1403 l 1,6,-1
 1330 1224 l 1,7,-1
 878 1224 l 1,8,-1
 1055 1403 l 1,5,-1
1225 740 m 1,9,-1
 1173 478 l 1,10,-1
 785 478 l 1,11,-1
 722 740 l 1,12,-1
 1225 740 l 1,9,-1
EndSplineSet
EndChar

StartChar: c
Encoding: 99 99 70
Width: 1649
GlyphClass: 1
Flags: W
LayerCount: 2
Fore
SplineSet
52 1016 m 1,0,-1
 380 -1 l 1,1,-1
 1575 -1 l 1,2,-1
 1674 478 l 1,3,-1
 768 478 l 1,4,-1
 648 955 l 1,5,-1
 1063 1426 l 1,6,-1
 1882 1426 l 1,7,-1
 1994 1853 l 1,8,-1
 768 1853 l 1,9,-1
 52 1016 l 1,0,-1
EndSplineSet
EndChar

StartChar: d
Encoding: 100 100 71
Width: 1506
GlyphClass: 1
Flags: W
LayerCount: 2
Fore
SplineSet
523 1855 m 1,0,-1
 1643 1855 l 1,1,-1
 1993 982 l 1,2,-1
 1456 -1 l 1,3,-1
 105 0 l 1,4,-1
 523 1855 l 1,0,-1
627 484 m 1,5,-1
 1197 484 l 1,6,-1
 1495 988 l 1,7,-1
 1293 1426 l 1,8,-1
 841 1425 l 1,9,-1
 627 484 l 1,5,-1
EndSplineSet
EndChar

StartChar: e
Encoding: 101 101 72
Width: 1384
GlyphClass: 1
Flags: W
LayerCount: 2
Fore
SplineSet
370 1427 m 1,0,-1
 1663 1427 l 1,1,-1
 1760 1854 l 1,2,-1
 466 1854 l 1,3,-1
 370 1427 l 1,0,-1
56 -1 m 1,4,-1
 1349 0 l 1,5,-1
 1464 523 l 1,6,-1
 675 523 l 1,7,-1
 737 796 l 1,8,-1
 1527 796 l 1,9,-1
 1627 1266 l 1,10,-1
 337 1266 l 1,11,-1
 56 -1 l 1,4,-1
370 1427 m 1,12,-1
 1663 1427 l 1,13,-1
 1760 1854 l 1,14,-1
 466 1854 l 1,15,-1
 370 1427 l 1,12,-1
56 -1 m 1,16,-1
 1349 0 l 1,17,-1
 1464 523 l 1,18,-1
 675 523 l 1,19,-1
 737 796 l 1,20,-1
 1527 796 l 1,21,-1
 1627 1266 l 1,22,-1
 337 1266 l 1,23,-1
 56 -1 l 1,16,-1
EndSplineSet
EndChar

StartChar: f
Encoding: 102 102 73
Width: 1328
GlyphClass: 1
Flags: W
LayerCount: 2
Fore
SplineSet
373 1427 m 1,0,-1
 1690 1427 l 1,1,-1
 1783 1855 l 1,2,-1
 467 1853 l 1,3,-1
 373 1427 l 1,0,-1
56 -2 m 1,4,-1
 536 -2 l 1,5,-1
 711 791 l 1,6,-1
 1548 791 l 1,7,-1
 1654 1266 l 1,8,-1
 337 1266 l 1,9,-1
 56 -2 l 1,4,-1
EndSplineSet
EndChar

StartChar: g
Encoding: 103 103 74
Width: 1649
GlyphClass: 1
Flags: W
LayerCount: 2
Fore
SplineSet
1250 790 m 1,0,-1
 1190 517 l 1,1,-1
 774 516 l 1,2,-1
 641 985 l 1,3,-1
 1059 1424 l 1,4,-1
 1882 1424 l 1,5,-1
 1980 1854 l 1,6,-1
 768 1853 l 1,7,-1
 52 1016 l 1,8,-1
 381 0 l 1,9,-1
 1569 0 l 1,10,-1
 1849 1266 l 1,11,-1
 980 1266 l 1,12,-1
 873 789 l 1,13,-1
 1250 790 l 1,0,-1
873 789 m 1,14,-1
 1250 790 l 1,15,-1
 873 789 l 1,14,-1
EndSplineSet
EndChar

StartChar: h
Encoding: 104 104 75
Width: 1472
GlyphClass: 1
Flags: W
LayerCount: 2
Fore
SplineSet
74 0 m 1,0,-1
 590 -1 l 1,1,-1
 750 716 l 1,2,-1
 1028 716 l 1,3,-1
 868 -2 l 1,4,-1
 1417 -2 l 1,5,-1
 1829 1854 l 1,6,-1
 1280 1854 l 1,7,-1
 1151 1263 l 1,8,-1
 873 1263 l 1,9,-1
 1002 1854 l 1,10,-1
 485 1854 l 1,11,-1
 74 0 l 1,0,-1
EndSplineSet
EndChar

StartChar: i
Encoding: 105 105 76
Width: 640
GlyphClass: 1
Flags: W
LayerCount: 2
Fore
SplineSet
893 1428 m 1,0,-1
 989 1853 l 1,1,-1
 466 1853 l 1,2,-1
 371 1428 l 1,3,-1
 893 1428 l 1,0,-1
55 -1 m 1,4,-1
 578 -1 l 1,5,-1
 857 1265 l 1,6,-1
 335 1265 l 1,7,-1
 55 -1 l 1,4,-1
EndSplineSet
EndChar

StartChar: j
Encoding: 106 106 77
Width: 1353
GlyphClass: 1
Flags: W
LayerCount: 2
Fore
SplineSet
200 1427 m 1,0,-1
 662 1427 l 1,1,-1
 346 1 l 1,2,-1
 95 -363 l 1,3,-1
 647 -363 l 1,4,-1
 892 1 l 1,5,-1
 1206 1424 l 1,6,-1
 1662 1424 l 1,7,-1
 1758 1856 l 1,8,-1
 294 1856 l 1,9,-1
 200 1427 l 1,0,-1
EndSplineSet
EndChar

StartChar: k
Encoding: 107 107 78
Width: 1711
GlyphClass: 1
Flags: W
LayerCount: 2
Fore
SplineSet
50 -1 m 1,0,-1
 575 -1 l 1,1,-1
 986 1854 l 1,2,-1
 461 1854 l 1,3,-1
 50 -1 l 1,0,-1
812 1018 m 1,4,-1
 1136 0 l 1,5,-1
 1661 0 l 1,6,-1
 1397 985 l 1,7,-1
 2118 1855 l 1,8,-1
 1524 1855 l 1,9,-1
 812 1018 l 1,4,-1
EndSplineSet
EndChar

StartChar: l
Encoding: 108 108 79
Width: 1428
GlyphClass: 1
Flags: W
LayerCount: 2
Fore
SplineSet
84 0 m 1,0,-1
 1373 0 l 1,1,-1
 1479 479 l 1,2,-1
 712 478 l 1,3,-1
 1018 1854 l 1,4,-1
 496 1854 l 1,5,-1
 84 0 l 1,0,-1
EndSplineSet
EndChar

StartChar: m
Encoding: 109 109 80
Width: 2127
GlyphClass: 1
Flags: W
LayerCount: 2
Fore
SplineSet
467 1854 m 1,0,-1
 1065 1855 l 1,1,-1
 1066 1426 l 1,2,-1
 371 1426 l 1,3,-1
 467 1854 l 1,0,-1
1066 1268 m 1,4,-1
 1066 870 l 1,5,-1
 1324 1268 l 1,6,-1
 2164 1268 l 1,7,-1
 1883 0 l 1,8,-1
 1329 0 l 1,9,-1
 1495 743 l 1,10,-1
 1106 0 l 1,11,-1
 714 0 l 1,12,-1
 714 781 l 1,13,-1
 542 -1 l 1,14,-1
 57 -1 l 1,15,-1
 337 1268 l 1,16,-1
 1066 1268 l 1,4,-1
1412 1426 m 1,17,-1
 1650 1854 l 1,18,-1
 2293 1854 l 1,19,-1
 2200 1426 l 1,20,-1
 1412 1426 l 1,17,-1
EndSplineSet
EndChar

StartChar: n
Encoding: 110 110 81
Width: 1563
GlyphClass: 1
Flags: W
LayerCount: 2
Fore
SplineSet
366 1426 m 1,0,-1
 461 1854 l 1,1,-1
 1085 1854 l 1,2,-1
 1182 1427 l 1,3,-1
 366 1426 l 1,0,-1
1341 1426 m 1,4,-1
 1438 1855 l 1,5,-1
 1917 1854 l 1,6,-1
 1823 1426 l 1,7,-1
 1341 1426 l 1,4,-1
51 0 m 1,8,-1
 332 1265 l 1,9,-1
 1218 1266 l 1,10,-1
 1262 1081 l 1,11,-1
 1306 1266 l 1,12,-1
 1787 1265 l 1,13,-1
 1507 -1 l 1,14,-1
 951 -1 l 1,15,-1
 723 784 l 1,16,-1
 549 0 l 1,17,-1
 51 0 l 1,8,-1
EndSplineSet
EndChar

StartChar: o
Encoding: 111 111 82
Width: 1355
GlyphClass: 1
Flags: W
LayerCount: 2
Fore
SplineSet
374 1425 m 1,0,-1
 1611 1425 l 1,1,-1
 1704 1854 l 1,2,-1
 470 1854 l 1,3,-1
 374 1425 l 1,0,-1
58 -1 m 1,4,-1
 1294 -1 l 1,5,-1
 1575 1265 l 1,6,-1
 1137 1265 l 1,7,-1
 971 517 l 1,8,-1
 626 517 l 1,9,-1
 794 1265 l 1,10,-1
 338 1265 l 1,11,-1
 58 -1 l 1,4,-1
EndSplineSet
EndChar

StartChar: p
Encoding: 112 112 83
Width: 1545
GlyphClass: 1
Flags: W
LayerCount: 2
Fore
SplineSet
375 1422 m 1,0,-1
 1309 1419 l 1,1,-1
 1345 1408 l 1,2,-1
 1378 1386 l 1,3,-1
 1392 1356 l 1,4,-1
 1392 1342 l 1,5,-1
 1378 1311 l 1,6,-1
 1351 1295 l 1,7,-1
 1318 1281 l 1,8,-1
 1254 1272 l 1,9,-1
 342 1271 l 1,10,-1
 59 0 l 1,11,-1
 596 0 l 1,12,-1
 768 778 l 1,13,-1
 1331 777 l 1,14,15
 1481 800 1481 800 1575 868 c 0,16,17
 1833 1055 1833 1055 1833 1380 c 0,18,19
 1833 1479 1833 1479 1810 1590 c 1,20,-1
 1793 1637 l 1,21,22
 1708 1795 1708 1795 1607 1827 c 0,23,24
 1525 1853 1525 1853 1403 1853 c 2,25,-1
 471 1854 l 1,26,-1
 375 1422 l 1,0,-1
EndSplineSet
EndChar

StartChar: q
Encoding: 113 113 84
Width: 1939
GlyphClass: 1
Flags: W
LayerCount: 2
Fore
SplineSet
104 1013 m 1,0,-1
 830 1854 l 1,1,-1
 1550 1854 l 1,2,-1
 1905 977 l 1,3,-1
 1704 584 l 1,4,-1
 1910 -1 l 1,5,-1
 1481 -1 l 1,6,-1
 1432 123 l 1,7,-1
 1363 -1 l 1,8,-1
 433 0 l 1,9,-1
 104 1013 l 1,0,-1
566 892 m 1,10,-1
 714 452 l 1,11,-1
 1074 452 l 1,12,-1
 1432 1024 l 1,13,-1
 1258 1426 l 1,14,-1
 987 1426 l 1,15,-1
 566 892 l 1,10,-1
EndSplineSet
EndChar

StartChar: r
Encoding: 114 114 85
Width: 1635
GlyphClass: 1
Flags: W
LayerCount: 2
Fore
SplineSet
417 1430 m 1,0,-1
 1356 1426 l 1,1,-1
 1392 1415 l 1,2,-1
 1425 1393 l 1,3,-1
 1439 1363 l 1,4,-1
 1439 1338 l 1,5,-1
 1425 1308 l 1,6,-1
 1398 1291 l 1,7,-1
 1365 1278 l 1,8,-1
 1301 1269 l 1,9,-1
 378 1269 l 1,10,-1
 99 -1 l 1,11,-1
 633 -1 l 1,12,-1
 805 776 l 1,13,-1
 1069 0 l 1,14,-1
 1610 0 l 1,15,-1
 1379 804 l 1,16,-1
 1587 893 l 1,17,18
 1848 1042 1848 1042 1848 1355 c 0,19,20
 1848 1475 1848 1475 1811 1615 c 0,21,22
 1757 1820 1757 1820 1529 1844 c 2,23,-1
 1435 1854 l 1,24,-1
 510 1854 l 1,25,-1
 417 1430 l 1,0,-1
EndSplineSet
EndChar

StartChar: s
Encoding: 115 115 86
Width: 1355
GlyphClass: 1
Flags: W
LayerCount: 2
Fore
SplineSet
345 1424 m 1,0,-1
 1672 1424 l 1,1,-1
 1765 1854 l 1,2,-1
 441 1854 l 1,3,-1
 345 1424 l 1,0,-1
204 790 m 1,4,-1
 934 790 l 1,5,-1
 873 516 l 1,6,-1
 144 517 l 1,7,-1
 30 0 l 1,8,-1
 1355 0 l 1,9,-1
 1636 1264 l 1,10,-1
 309 1264 l 1,11,-1
 204 790 l 1,4,-1
EndSplineSet
EndChar

StartChar: t
Encoding: 116 116 87
Width: 1558
GlyphClass: 1
Flags: W
LayerCount: 2
Fore
SplineSet
364 1425 m 1,0,-1
 836 1424 l 1,1,-1
 523 0 l 1,2,-1
 1069 0 l 1,3,-1
 1382 1424 l 1,4,-1
 1852 1425 l 1,5,-1
 1948 1854 l 1,6,-1
 458 1854 l 1,7,-1
 364 1425 l 1,0,-1
EndSplineSet
EndChar

StartChar: u
Encoding: 117 117 88
Width: 1355
GlyphClass: 1
Flags: W
LayerCount: 2
Fore
SplineSet
58 -1 m 1,0,-1
 1346 0 l 1,1,-1
 1627 1265 l 1,2,-1
 1124 1265 l 1,3,-1
 959 519 l 1,4,-1
 674 519 l 1,5,-1
 837 1265 l 1,6,-1
 338 1265 l 1,7,-1
 58 -1 l 1,0,-1
1158 1425 m 1,8,-1
 1663 1426 l 1,9,-1
 1756 1855 l 1,10,-1
 1254 1854 l 1,11,-1
 1158 1425 l 1,8,-1
374 1425 m 1,12,-1
 877 1426 l 1,13,-1
 969 1854 l 1,14,-1
 470 1854 l 1,15,-1
 374 1425 l 1,12,-1
EndSplineSet
EndChar

StartChar: v
Encoding: 118 118 89
Width: 1440
GlyphClass: 1
Flags: W
LayerCount: 2
Fore
SplineSet
483 1854 m 1,0,-1
 931 1854 l 1,1,-1
 978 1427 l 1,2,-1
 530 1426 l 1,3,-1
 483 1854 l 1,0,-1
997 1265 m 1,4,-1
 1041 886 l 1,5,-1
 1192 1266 l 1,6,-1
 1681 1266 l 1,7,-1
 1218 0 l 1,8,-1
 685 0 l 1,9,-1
 547 1265 l 1,10,-1
 997 1265 l 1,4,-1
1255 1425 m 1,11,-1
 1429 1854 l 1,12,-1
 1894 1854 l 1,13,-1
 1733 1424 l 1,14,-1
 1255 1425 l 1,11,-1
EndSplineSet
EndChar

StartChar: w
Encoding: 119 119 90
Width: 2203
GlyphClass: 1
Flags: W
LayerCount: 2
Fore
SplineSet
148 1854 m 1,0,-1
 760 1854 l 1,1,-1
 852 1429 l 1,2,-1
 253 1428 l 1,3,-1
 148 1854 l 1,0,-1
1113 1854 m 1,4,-1
 1726 1854 l 1,5,-1
 1821 1426 l 1,6,-1
 1014 1426 l 1,7,-1
 1113 1854 l 1,4,-1
1979 1424 m 1,8,-1
 2073 1854 l 1,9,-1
 2562 1854 l 1,10,-1
 2464 1424 l 1,11,-1
 1979 1424 l 1,8,-1
1861 1268 m 1,12,-1
 1902 1087 l 1,13,-1
 1943 1266 l 1,14,-1
 2429 1266 l 1,15,-1
 2150 0 l 1,16,-1
 1591 0 l 1,17,-1
 1369 835 l 1,18,-1
 1185 0 l 1,19,-1
 625 0 l 1,20,-1
 302 1265 l 1,21,-1
 896 1266 l 1,22,-1
 937 1087 l 1,23,-1
 979 1268 l 1,24,-1
 1861 1268 l 1,12,-1
EndSplineSet
EndChar

StartChar: x
Encoding: 120 120 91
Width: 1498
GlyphClass: 1
Flags: W
LayerCount: 2
Fore
SplineSet
35 1855 m 1,0,-1
 378 982 l 1,1,-1
 -164 -1 l 1,2,-1
 471 -1 l 1,3,-1
 830 589 l 1,4,-1
 1049 -1 l 1,5,-1
 1715 -1 l 1,6,-1
 1396 1011 l 1,7,-1
 2107 1855 l 1,8,-1
 1416 1855 l 1,9,-1
 943 1262 l 1,10,-1
 699 1855 l 1,11,-1
 35 1855 l 1,0,-1
EndSplineSet
EndChar

StartChar: y
Encoding: 121 121 92
Width: 1105
GlyphClass: 1
Flags: W
LayerCount: 2
Fore
SplineSet
478 -1 m 1,0,-1
 999 -1 l 1,1,-1
 1410 1854 l 1,2,-1
 892 1854 l 1,3,-1
 754 1241 l 1,4,-1
 651 1854 l 1,5,-1
 79 1854 l 1,6,-1
 320 796 l 1,7,-1
 654 796 l 1,8,-1
 478 -1 l 1,0,-1
EndSplineSet
EndChar

StartChar: z
Encoding: 122 122 93
Width: 1379
GlyphClass: 1
Flags: W
LayerCount: 2
Fore
SplineSet
379 1425 m 1,0,-1
 1632 1425 l 1,1,-1
 1726 1854 l 1,2,-1
 473 1853 l 1,3,-1
 379 1425 l 1,0,-1
61 -1 m 1,4,-1
 1316 -1 l 1,5,-1
 1431 517 l 1,6,-1
 675 517 l 1,7,-1
 1491 785 l 1,8,-1
 1596 1265 l 1,9,-1
 1162 1265 l 1,10,-1
 298 1059 l 1,11,-1
 61 -1 l 1,4,-1
EndSplineSet
EndChar

StartChar: braceleft
Encoding: 123 123 94
Width: 500
GlyphClass: 1
Flags: W
LayerCount: 2
Fore
SplineSet
63 0 m 1,0,-1
 63 1280 l 1,1,-1
 1087 1280 l 1,2,-1
 1087 0 l 1,3,-1
 63 0 l 1,0,-1
95 32 m 1,4,-1
 1055 32 l 1,5,-1
 1055 1248 l 1,6,-1
 95 1248 l 1,7,-1
 95 32 l 1,4,-1
EndSplineSet
EndChar

StartChar: bar
Encoding: 124 124 95
Width: 500
GlyphClass: 1
Flags: W
LayerCount: 2
Fore
SplineSet
63 0 m 1,0,-1
 63 1280 l 1,1,-1
 1087 1280 l 1,2,-1
 1087 0 l 1,3,-1
 63 0 l 1,0,-1
95 32 m 1,4,-1
 1055 32 l 1,5,-1
 1055 1248 l 1,6,-1
 95 1248 l 1,7,-1
 95 32 l 1,4,-1
EndSplineSet
EndChar

StartChar: braceright
Encoding: 125 125 96
Width: 500
GlyphClass: 1
Flags: W
LayerCount: 2
Fore
SplineSet
63 0 m 1,0,-1
 63 1280 l 1,1,-1
 1087 1280 l 1,2,-1
 1087 0 l 1,3,-1
 63 0 l 1,0,-1
95 32 m 1,4,-1
 1055 32 l 1,5,-1
 1055 1248 l 1,6,-1
 95 1248 l 1,7,-1
 95 32 l 1,4,-1
EndSplineSet
EndChar

StartChar: asciitilde
Encoding: 126 126 97
Width: 500
GlyphClass: 1
Flags: W
LayerCount: 2
Fore
SplineSet
63 0 m 1,0,-1
 63 1280 l 1,1,-1
 1087 1280 l 1,2,-1
 1087 0 l 1,3,-1
 63 0 l 1,0,-1
95 32 m 1,4,-1
 1055 32 l 1,5,-1
 1055 1248 l 1,6,-1
 95 1248 l 1,7,-1
 95 32 l 1,4,-1
EndSplineSet
EndChar

StartChar: exclamdown
Encoding: 161 161 98
Width: 500
GlyphClass: 1
Flags: W
LayerCount: 2
Fore
SplineSet
63 0 m 1,0,-1
 63 1280 l 1,1,-1
 1087 1280 l 1,2,-1
 1087 0 l 1,3,-1
 63 0 l 1,0,-1
95 32 m 1,4,-1
 1055 32 l 1,5,-1
 1055 1248 l 1,6,-1
 95 1248 l 1,7,-1
 95 32 l 1,4,-1
EndSplineSet
EndChar

StartChar: cent
Encoding: 162 162 99
Width: 500
GlyphClass: 1
Flags: W
LayerCount: 2
Fore
SplineSet
63 0 m 1,0,-1
 63 1280 l 1,1,-1
 1087 1280 l 1,2,-1
 1087 0 l 1,3,-1
 63 0 l 1,0,-1
95 32 m 1,4,-1
 1055 32 l 1,5,-1
 1055 1248 l 1,6,-1
 95 1248 l 1,7,-1
 95 32 l 1,4,-1
EndSplineSet
EndChar

StartChar: sterling
Encoding: 163 163 100
Width: 500
GlyphClass: 1
Flags: W
LayerCount: 2
Fore
SplineSet
63 0 m 1,0,-1
 63 1280 l 1,1,-1
 1087 1280 l 1,2,-1
 1087 0 l 1,3,-1
 63 0 l 1,0,-1
95 32 m 1,4,-1
 1055 32 l 1,5,-1
 1055 1248 l 1,6,-1
 95 1248 l 1,7,-1
 95 32 l 1,4,-1
EndSplineSet
EndChar

StartChar: currency
Encoding: 164 164 101
Width: 500
GlyphClass: 1
Flags: W
LayerCount: 2
Fore
SplineSet
63 0 m 1,0,-1
 63 1280 l 1,1,-1
 1087 1280 l 1,2,-1
 1087 0 l 1,3,-1
 63 0 l 1,0,-1
95 32 m 1,4,-1
 1055 32 l 1,5,-1
 1055 1248 l 1,6,-1
 95 1248 l 1,7,-1
 95 32 l 1,4,-1
EndSplineSet
EndChar

StartChar: yen
Encoding: 165 165 102
Width: 500
GlyphClass: 1
Flags: W
LayerCount: 2
Fore
SplineSet
63 0 m 1,0,-1
 63 1280 l 1,1,-1
 1087 1280 l 1,2,-1
 1087 0 l 1,3,-1
 63 0 l 1,0,-1
95 32 m 1,4,-1
 1055 32 l 1,5,-1
 1055 1248 l 1,6,-1
 95 1248 l 1,7,-1
 95 32 l 1,4,-1
EndSplineSet
EndChar

StartChar: brokenbar
Encoding: 166 166 103
Width: 500
GlyphClass: 1
Flags: W
LayerCount: 2
Fore
SplineSet
63 0 m 1,0,-1
 63 1280 l 1,1,-1
 1087 1280 l 1,2,-1
 1087 0 l 1,3,-1
 63 0 l 1,0,-1
95 32 m 1,4,-1
 1055 32 l 1,5,-1
 1055 1248 l 1,6,-1
 95 1248 l 1,7,-1
 95 32 l 1,4,-1
EndSplineSet
EndChar

StartChar: section
Encoding: 167 167 104
Width: 500
GlyphClass: 1
Flags: W
LayerCount: 2
Fore
SplineSet
63 0 m 1,0,-1
 63 1280 l 1,1,-1
 1087 1280 l 1,2,-1
 1087 0 l 1,3,-1
 63 0 l 1,0,-1
95 32 m 1,4,-1
 1055 32 l 1,5,-1
 1055 1248 l 1,6,-1
 95 1248 l 1,7,-1
 95 32 l 1,4,-1
EndSplineSet
EndChar

StartChar: dieresis
Encoding: 168 168 105
Width: 500
GlyphClass: 1
Flags: W
LayerCount: 2
Fore
SplineSet
63 0 m 1,0,-1
 63 1280 l 1,1,-1
 1087 1280 l 1,2,-1
 1087 0 l 1,3,-1
 63 0 l 1,0,-1
95 32 m 1,4,-1
 1055 32 l 1,5,-1
 1055 1248 l 1,6,-1
 95 1248 l 1,7,-1
 95 32 l 1,4,-1
EndSplineSet
EndChar

StartChar: copyright
Encoding: 169 169 106
Width: 500
GlyphClass: 1
Flags: W
LayerCount: 2
Fore
SplineSet
63 0 m 1,0,-1
 63 1280 l 1,1,-1
 1087 1280 l 1,2,-1
 1087 0 l 1,3,-1
 63 0 l 1,0,-1
95 32 m 1,4,-1
 1055 32 l 1,5,-1
 1055 1248 l 1,6,-1
 95 1248 l 1,7,-1
 95 32 l 1,4,-1
EndSplineSet
EndChar

StartChar: ordfeminine
Encoding: 170 170 107
Width: 500
GlyphClass: 1
Flags: W
LayerCount: 2
Fore
SplineSet
63 0 m 1,0,-1
 63 1280 l 1,1,-1
 1087 1280 l 1,2,-1
 1087 0 l 1,3,-1
 63 0 l 1,0,-1
95 32 m 1,4,-1
 1055 32 l 1,5,-1
 1055 1248 l 1,6,-1
 95 1248 l 1,7,-1
 95 32 l 1,4,-1
EndSplineSet
EndChar

StartChar: guillemotleft
Encoding: 171 171 108
Width: 500
GlyphClass: 1
Flags: W
LayerCount: 2
Fore
SplineSet
63 0 m 1,0,-1
 63 1280 l 1,1,-1
 1087 1280 l 1,2,-1
 1087 0 l 1,3,-1
 63 0 l 1,0,-1
95 32 m 1,4,-1
 1055 32 l 1,5,-1
 1055 1248 l 1,6,-1
 95 1248 l 1,7,-1
 95 32 l 1,4,-1
EndSplineSet
EndChar

StartChar: logicalnot
Encoding: 172 172 109
Width: 500
GlyphClass: 1
Flags: W
LayerCount: 2
Fore
SplineSet
63 0 m 1,0,-1
 63 1280 l 1,1,-1
 1087 1280 l 1,2,-1
 1087 0 l 1,3,-1
 63 0 l 1,0,-1
95 32 m 1,4,-1
 1055 32 l 1,5,-1
 1055 1248 l 1,6,-1
 95 1248 l 1,7,-1
 95 32 l 1,4,-1
EndSplineSet
EndChar

StartChar: registered
Encoding: 174 174 110
Width: 330
GlyphClass: 1
Flags: W
LayerCount: 2
Fore
SplineSet
215 1848 m 0,0,1
 266 1848 266 1848 291 1804 c 0,2,3
 303 1783 303 1783 303 1760 c 0,4,5
 303 1708 303 1708 259 1684 c 0,6,7
 237 1672 237 1672 215 1672 c 0,8,9
 163 1672 163 1672 139 1716 c 0,10,11
 127 1738 127 1738 127 1760 c 0,12,13
 127 1812 127 1812 172 1837 c 0,14,15
 192 1848 192 1848 215 1848 c 0,0,1
215 1841 m 0,16,17
 167 1841 167 1841 146 1801 c 0,18,19
 135 1780 135 1780 135 1760 c 0,20,21
 135 1726 135 1726 158 1703 c 128,-1,22
 181 1680 181 1680 215 1680 c 256,23,24
 249 1680 249 1680 272 1703 c 128,-1,25
 295 1726 295 1726 295 1760 c 0,26,27
 295 1810 295 1810 255 1831 c 0,28,29
 236 1841 236 1841 215 1841 c 0,16,17
166 1814 m 1,30,-1
 214 1814 l 2,31,32
 251 1814 251 1814 251 1786 c 0,33,34
 251 1766 251 1766 223 1759 c 1,35,-1
 249 1722 l 2,36,37
 257 1711 257 1711 264 1711 c 1,38,-1
 264 1707 l 1,39,-1
 242 1707 l 1,40,-1
 205 1757 l 1,41,-1
 196 1757 l 1,42,-1
 196 1719 l 2,43,44
 196 1711 196 1711 210 1711 c 1,45,-1
 210 1707 l 1,46,-1
 165 1707 l 1,47,-1
 165 1711 l 1,48,49
 178 1711 178 1711 178 1728 c 2,50,-1
 178 1793 l 2,51,52
 178 1802 178 1802 177 1804 c 0,53,54
 175 1810 175 1810 166 1810 c 1,55,-1
 166 1814 l 1,30,-1
196 1762 m 1,56,57
 231 1762 231 1762 231 1785 c 0,58,59
 231 1809 231 1809 206 1809 c 0,60,61
 201 1809 201 1809 196 1807 c 1,62,-1
 196 1762 l 1,56,57
EndSplineSet
EndChar

StartChar: degree
Encoding: 176 176 111
Width: 500
GlyphClass: 1
Flags: W
LayerCount: 2
Fore
SplineSet
63 0 m 1,0,-1
 63 1280 l 1,1,-1
 1087 1280 l 1,2,-1
 1087 0 l 1,3,-1
 63 0 l 1,0,-1
95 32 m 1,4,-1
 1055 32 l 1,5,-1
 1055 1248 l 1,6,-1
 95 1248 l 1,7,-1
 95 32 l 1,4,-1
EndSplineSet
EndChar

StartChar: plusminus
Encoding: 177 177 112
Width: 500
GlyphClass: 1
Flags: W
LayerCount: 2
Fore
SplineSet
63 0 m 1,0,-1
 63 1280 l 1,1,-1
 1087 1280 l 1,2,-1
 1087 0 l 1,3,-1
 63 0 l 1,0,-1
95 32 m 1,4,-1
 1055 32 l 1,5,-1
 1055 1248 l 1,6,-1
 95 1248 l 1,7,-1
 95 32 l 1,4,-1
EndSplineSet
EndChar

StartChar: twosuperior
Encoding: 178 178 113
Width: 500
GlyphClass: 1
Flags: W
LayerCount: 2
Fore
SplineSet
63 0 m 1,0,-1
 63 1280 l 1,1,-1
 1087 1280 l 1,2,-1
 1087 0 l 1,3,-1
 63 0 l 1,0,-1
95 32 m 1,4,-1
 1055 32 l 1,5,-1
 1055 1248 l 1,6,-1
 95 1248 l 1,7,-1
 95 32 l 1,4,-1
EndSplineSet
EndChar

StartChar: threesuperior
Encoding: 179 179 114
Width: 500
GlyphClass: 1
Flags: W
LayerCount: 2
Fore
SplineSet
63 0 m 1,0,-1
 63 1280 l 1,1,-1
 1087 1280 l 1,2,-1
 1087 0 l 1,3,-1
 63 0 l 1,0,-1
95 32 m 1,4,-1
 1055 32 l 1,5,-1
 1055 1248 l 1,6,-1
 95 1248 l 1,7,-1
 95 32 l 1,4,-1
EndSplineSet
EndChar

StartChar: acute
Encoding: 180 180 115
Width: 500
GlyphClass: 1
Flags: W
LayerCount: 2
Fore
SplineSet
63 0 m 1,0,-1
 63 1280 l 1,1,-1
 1087 1280 l 1,2,-1
 1087 0 l 1,3,-1
 63 0 l 1,0,-1
95 32 m 1,4,-1
 1055 32 l 1,5,-1
 1055 1248 l 1,6,-1
 95 1248 l 1,7,-1
 95 32 l 1,4,-1
EndSplineSet
EndChar

StartChar: paragraph
Encoding: 182 182 116
Width: 500
GlyphClass: 1
Flags: W
LayerCount: 2
Fore
SplineSet
63 0 m 1,0,-1
 63 1280 l 1,1,-1
 1087 1280 l 1,2,-1
 1087 0 l 1,3,-1
 63 0 l 1,0,-1
95 32 m 1,4,-1
 1055 32 l 1,5,-1
 1055 1248 l 1,6,-1
 95 1248 l 1,7,-1
 95 32 l 1,4,-1
EndSplineSet
EndChar

StartChar: cedilla
Encoding: 184 184 117
Width: 500
GlyphClass: 1
Flags: W
LayerCount: 2
Fore
SplineSet
63 0 m 1,0,-1
 63 1280 l 1,1,-1
 1087 1280 l 1,2,-1
 1087 0 l 1,3,-1
 63 0 l 1,0,-1
95 32 m 1,4,-1
 1055 32 l 1,5,-1
 1055 1248 l 1,6,-1
 95 1248 l 1,7,-1
 95 32 l 1,4,-1
EndSplineSet
EndChar

StartChar: onesuperior
Encoding: 185 185 118
Width: 500
GlyphClass: 1
Flags: W
LayerCount: 2
Fore
SplineSet
63 0 m 1,0,-1
 63 1280 l 1,1,-1
 1087 1280 l 1,2,-1
 1087 0 l 1,3,-1
 63 0 l 1,0,-1
95 32 m 1,4,-1
 1055 32 l 1,5,-1
 1055 1248 l 1,6,-1
 95 1248 l 1,7,-1
 95 32 l 1,4,-1
EndSplineSet
EndChar

StartChar: ordmasculine
Encoding: 186 186 119
Width: 500
GlyphClass: 1
Flags: W
LayerCount: 2
Fore
SplineSet
63 0 m 1,0,-1
 63 1280 l 1,1,-1
 1087 1280 l 1,2,-1
 1087 0 l 1,3,-1
 63 0 l 1,0,-1
95 32 m 1,4,-1
 1055 32 l 1,5,-1
 1055 1248 l 1,6,-1
 95 1248 l 1,7,-1
 95 32 l 1,4,-1
EndSplineSet
EndChar

StartChar: guillemotright
Encoding: 187 187 120
Width: 500
GlyphClass: 1
Flags: W
LayerCount: 2
Fore
SplineSet
63 0 m 1,0,-1
 63 1280 l 1,1,-1
 1087 1280 l 1,2,-1
 1087 0 l 1,3,-1
 63 0 l 1,0,-1
95 32 m 1,4,-1
 1055 32 l 1,5,-1
 1055 1248 l 1,6,-1
 95 1248 l 1,7,-1
 95 32 l 1,4,-1
EndSplineSet
EndChar

StartChar: onequarter
Encoding: 188 188 121
Width: 500
GlyphClass: 1
Flags: W
LayerCount: 2
Fore
SplineSet
63 0 m 1,0,-1
 63 1280 l 1,1,-1
 1087 1280 l 1,2,-1
 1087 0 l 1,3,-1
 63 0 l 1,0,-1
95 32 m 1,4,-1
 1055 32 l 1,5,-1
 1055 1248 l 1,6,-1
 95 1248 l 1,7,-1
 95 32 l 1,4,-1
EndSplineSet
EndChar

StartChar: onehalf
Encoding: 189 189 122
Width: 500
GlyphClass: 1
Flags: W
LayerCount: 2
Fore
SplineSet
63 0 m 1,0,-1
 63 1280 l 1,1,-1
 1087 1280 l 1,2,-1
 1087 0 l 1,3,-1
 63 0 l 1,0,-1
95 32 m 1,4,-1
 1055 32 l 1,5,-1
 1055 1248 l 1,6,-1
 95 1248 l 1,7,-1
 95 32 l 1,4,-1
EndSplineSet
EndChar

StartChar: threequarters
Encoding: 190 190 123
Width: 500
GlyphClass: 1
Flags: W
LayerCount: 2
Fore
SplineSet
63 0 m 1,0,-1
 63 1280 l 1,1,-1
 1087 1280 l 1,2,-1
 1087 0 l 1,3,-1
 63 0 l 1,0,-1
95 32 m 1,4,-1
 1055 32 l 1,5,-1
 1055 1248 l 1,6,-1
 95 1248 l 1,7,-1
 95 32 l 1,4,-1
EndSplineSet
EndChar

StartChar: questiondown
Encoding: 191 191 124
Width: 500
GlyphClass: 1
Flags: W
LayerCount: 2
Fore
SplineSet
63 0 m 1,0,-1
 63 1280 l 1,1,-1
 1087 1280 l 1,2,-1
 1087 0 l 1,3,-1
 63 0 l 1,0,-1
95 32 m 1,4,-1
 1055 32 l 1,5,-1
 1055 1248 l 1,6,-1
 95 1248 l 1,7,-1
 95 32 l 1,4,-1
EndSplineSet
EndChar

StartChar: Agrave
Encoding: 192 192 125
Width: 500
GlyphClass: 1
Flags: W
LayerCount: 2
Fore
SplineSet
63 0 m 1,0,-1
 63 1280 l 1,1,-1
 1087 1280 l 1,2,-1
 1087 0 l 1,3,-1
 63 0 l 1,0,-1
95 32 m 1,4,-1
 1055 32 l 1,5,-1
 1055 1248 l 1,6,-1
 95 1248 l 1,7,-1
 95 32 l 1,4,-1
EndSplineSet
EndChar

StartChar: Aacute
Encoding: 193 193 126
Width: 500
GlyphClass: 1
Flags: W
LayerCount: 2
Fore
SplineSet
63 0 m 1,0,-1
 63 1280 l 1,1,-1
 1087 1280 l 1,2,-1
 1087 0 l 1,3,-1
 63 0 l 1,0,-1
95 32 m 1,4,-1
 1055 32 l 1,5,-1
 1055 1248 l 1,6,-1
 95 1248 l 1,7,-1
 95 32 l 1,4,-1
EndSplineSet
EndChar

StartChar: Acircumflex
Encoding: 194 194 127
Width: 500
GlyphClass: 1
Flags: W
LayerCount: 2
Fore
SplineSet
63 0 m 1,0,-1
 63 1280 l 1,1,-1
 1087 1280 l 1,2,-1
 1087 0 l 1,3,-1
 63 0 l 1,0,-1
95 32 m 1,4,-1
 1055 32 l 1,5,-1
 1055 1248 l 1,6,-1
 95 1248 l 1,7,-1
 95 32 l 1,4,-1
EndSplineSet
EndChar

StartChar: Atilde
Encoding: 195 195 128
Width: 500
GlyphClass: 1
Flags: W
LayerCount: 2
Fore
SplineSet
63 0 m 1,0,-1
 63 1280 l 1,1,-1
 1087 1280 l 1,2,-1
 1087 0 l 1,3,-1
 63 0 l 1,0,-1
95 32 m 1,4,-1
 1055 32 l 1,5,-1
 1055 1248 l 1,6,-1
 95 1248 l 1,7,-1
 95 32 l 1,4,-1
EndSplineSet
EndChar

StartChar: Adieresis
Encoding: 196 196 129
Width: 500
GlyphClass: 1
Flags: W
LayerCount: 2
Fore
SplineSet
63 0 m 1,0,-1
 63 1280 l 1,1,-1
 1087 1280 l 1,2,-1
 1087 0 l 1,3,-1
 63 0 l 1,0,-1
95 32 m 1,4,-1
 1055 32 l 1,5,-1
 1055 1248 l 1,6,-1
 95 1248 l 1,7,-1
 95 32 l 1,4,-1
EndSplineSet
EndChar

StartChar: Aring
Encoding: 197 197 130
Width: 500
GlyphClass: 1
Flags: W
LayerCount: 2
Fore
SplineSet
63 0 m 1,0,-1
 63 1280 l 1,1,-1
 1087 1280 l 1,2,-1
 1087 0 l 1,3,-1
 63 0 l 1,0,-1
95 32 m 1,4,-1
 1055 32 l 1,5,-1
 1055 1248 l 1,6,-1
 95 1248 l 1,7,-1
 95 32 l 1,4,-1
EndSplineSet
EndChar

StartChar: AE
Encoding: 198 198 131
Width: 500
GlyphClass: 1
Flags: W
LayerCount: 2
Fore
SplineSet
63 0 m 1,0,-1
 63 1280 l 1,1,-1
 1087 1280 l 1,2,-1
 1087 0 l 1,3,-1
 63 0 l 1,0,-1
95 32 m 1,4,-1
 1055 32 l 1,5,-1
 1055 1248 l 1,6,-1
 95 1248 l 1,7,-1
 95 32 l 1,4,-1
EndSplineSet
EndChar

StartChar: Ccedilla
Encoding: 199 199 132
Width: 500
GlyphClass: 1
Flags: W
LayerCount: 2
Fore
SplineSet
63 0 m 1,0,-1
 63 1280 l 1,1,-1
 1087 1280 l 1,2,-1
 1087 0 l 1,3,-1
 63 0 l 1,0,-1
95 32 m 1,4,-1
 1055 32 l 1,5,-1
 1055 1248 l 1,6,-1
 95 1248 l 1,7,-1
 95 32 l 1,4,-1
EndSplineSet
EndChar

StartChar: Egrave
Encoding: 200 200 133
Width: 500
GlyphClass: 1
Flags: W
LayerCount: 2
Fore
SplineSet
63 0 m 1,0,-1
 63 1280 l 1,1,-1
 1087 1280 l 1,2,-1
 1087 0 l 1,3,-1
 63 0 l 1,0,-1
95 32 m 1,4,-1
 1055 32 l 1,5,-1
 1055 1248 l 1,6,-1
 95 1248 l 1,7,-1
 95 32 l 1,4,-1
EndSplineSet
EndChar

StartChar: Eacute
Encoding: 201 201 134
Width: 500
GlyphClass: 1
Flags: W
LayerCount: 2
Fore
SplineSet
63 0 m 1,0,-1
 63 1280 l 1,1,-1
 1087 1280 l 1,2,-1
 1087 0 l 1,3,-1
 63 0 l 1,0,-1
95 32 m 1,4,-1
 1055 32 l 1,5,-1
 1055 1248 l 1,6,-1
 95 1248 l 1,7,-1
 95 32 l 1,4,-1
EndSplineSet
EndChar

StartChar: Ecircumflex
Encoding: 202 202 135
Width: 500
GlyphClass: 1
Flags: W
LayerCount: 2
Fore
SplineSet
63 0 m 1,0,-1
 63 1280 l 1,1,-1
 1087 1280 l 1,2,-1
 1087 0 l 1,3,-1
 63 0 l 1,0,-1
95 32 m 1,4,-1
 1055 32 l 1,5,-1
 1055 1248 l 1,6,-1
 95 1248 l 1,7,-1
 95 32 l 1,4,-1
EndSplineSet
EndChar

StartChar: Edieresis
Encoding: 203 203 136
Width: 500
GlyphClass: 1
Flags: W
LayerCount: 2
Fore
SplineSet
63 0 m 1,0,-1
 63 1280 l 1,1,-1
 1087 1280 l 1,2,-1
 1087 0 l 1,3,-1
 63 0 l 1,0,-1
95 32 m 1,4,-1
 1055 32 l 1,5,-1
 1055 1248 l 1,6,-1
 95 1248 l 1,7,-1
 95 32 l 1,4,-1
EndSplineSet
EndChar

StartChar: Igrave
Encoding: 204 204 137
Width: 500
GlyphClass: 1
Flags: W
LayerCount: 2
Fore
SplineSet
63 0 m 1,0,-1
 63 1280 l 1,1,-1
 1087 1280 l 1,2,-1
 1087 0 l 1,3,-1
 63 0 l 1,0,-1
95 32 m 1,4,-1
 1055 32 l 1,5,-1
 1055 1248 l 1,6,-1
 95 1248 l 1,7,-1
 95 32 l 1,4,-1
EndSplineSet
EndChar

StartChar: Iacute
Encoding: 205 205 138
Width: 500
GlyphClass: 1
Flags: W
LayerCount: 2
Fore
SplineSet
63 0 m 1,0,-1
 63 1280 l 1,1,-1
 1087 1280 l 1,2,-1
 1087 0 l 1,3,-1
 63 0 l 1,0,-1
95 32 m 1,4,-1
 1055 32 l 1,5,-1
 1055 1248 l 1,6,-1
 95 1248 l 1,7,-1
 95 32 l 1,4,-1
EndSplineSet
EndChar

StartChar: Icircumflex
Encoding: 206 206 139
Width: 500
GlyphClass: 1
Flags: W
LayerCount: 2
Fore
SplineSet
63 0 m 1,0,-1
 63 1280 l 1,1,-1
 1087 1280 l 1,2,-1
 1087 0 l 1,3,-1
 63 0 l 1,0,-1
95 32 m 1,4,-1
 1055 32 l 1,5,-1
 1055 1248 l 1,6,-1
 95 1248 l 1,7,-1
 95 32 l 1,4,-1
EndSplineSet
EndChar

StartChar: Idieresis
Encoding: 207 207 140
Width: 500
GlyphClass: 1
Flags: W
LayerCount: 2
Fore
SplineSet
63 0 m 1,0,-1
 63 1280 l 1,1,-1
 1087 1280 l 1,2,-1
 1087 0 l 1,3,-1
 63 0 l 1,0,-1
95 32 m 1,4,-1
 1055 32 l 1,5,-1
 1055 1248 l 1,6,-1
 95 1248 l 1,7,-1
 95 32 l 1,4,-1
EndSplineSet
EndChar

StartChar: Eth
Encoding: 208 208 141
Width: 500
GlyphClass: 1
Flags: W
LayerCount: 2
Fore
SplineSet
63 0 m 1,0,-1
 63 1280 l 1,1,-1
 1087 1280 l 1,2,-1
 1087 0 l 1,3,-1
 63 0 l 1,0,-1
95 32 m 1,4,-1
 1055 32 l 1,5,-1
 1055 1248 l 1,6,-1
 95 1248 l 1,7,-1
 95 32 l 1,4,-1
EndSplineSet
EndChar

StartChar: Ntilde
Encoding: 209 209 142
Width: 500
GlyphClass: 1
Flags: W
LayerCount: 2
Fore
SplineSet
63 0 m 1,0,-1
 63 1280 l 1,1,-1
 1087 1280 l 1,2,-1
 1087 0 l 1,3,-1
 63 0 l 1,0,-1
95 32 m 1,4,-1
 1055 32 l 1,5,-1
 1055 1248 l 1,6,-1
 95 1248 l 1,7,-1
 95 32 l 1,4,-1
EndSplineSet
EndChar

StartChar: Ograve
Encoding: 210 210 143
Width: 500
GlyphClass: 1
Flags: W
LayerCount: 2
Fore
SplineSet
63 0 m 1,0,-1
 63 1280 l 1,1,-1
 1087 1280 l 1,2,-1
 1087 0 l 1,3,-1
 63 0 l 1,0,-1
95 32 m 1,4,-1
 1055 32 l 1,5,-1
 1055 1248 l 1,6,-1
 95 1248 l 1,7,-1
 95 32 l 1,4,-1
EndSplineSet
EndChar

StartChar: Oacute
Encoding: 211 211 144
Width: 500
GlyphClass: 1
Flags: W
LayerCount: 2
Fore
SplineSet
63 0 m 1,0,-1
 63 1280 l 1,1,-1
 1087 1280 l 1,2,-1
 1087 0 l 1,3,-1
 63 0 l 1,0,-1
95 32 m 1,4,-1
 1055 32 l 1,5,-1
 1055 1248 l 1,6,-1
 95 1248 l 1,7,-1
 95 32 l 1,4,-1
EndSplineSet
EndChar

StartChar: Ocircumflex
Encoding: 212 212 145
Width: 500
GlyphClass: 1
Flags: W
LayerCount: 2
Fore
SplineSet
63 0 m 1,0,-1
 63 1280 l 1,1,-1
 1087 1280 l 1,2,-1
 1087 0 l 1,3,-1
 63 0 l 1,0,-1
95 32 m 1,4,-1
 1055 32 l 1,5,-1
 1055 1248 l 1,6,-1
 95 1248 l 1,7,-1
 95 32 l 1,4,-1
EndSplineSet
EndChar

StartChar: Otilde
Encoding: 213 213 146
Width: 500
GlyphClass: 1
Flags: W
LayerCount: 2
Fore
SplineSet
63 0 m 1,0,-1
 63 1280 l 1,1,-1
 1087 1280 l 1,2,-1
 1087 0 l 1,3,-1
 63 0 l 1,0,-1
95 32 m 1,4,-1
 1055 32 l 1,5,-1
 1055 1248 l 1,6,-1
 95 1248 l 1,7,-1
 95 32 l 1,4,-1
EndSplineSet
EndChar

StartChar: Odieresis
Encoding: 214 214 147
Width: 500
GlyphClass: 1
Flags: W
LayerCount: 2
Fore
SplineSet
63 0 m 1,0,-1
 63 1280 l 1,1,-1
 1087 1280 l 1,2,-1
 1087 0 l 1,3,-1
 63 0 l 1,0,-1
95 32 m 1,4,-1
 1055 32 l 1,5,-1
 1055 1248 l 1,6,-1
 95 1248 l 1,7,-1
 95 32 l 1,4,-1
EndSplineSet
EndChar

StartChar: multiply
Encoding: 215 215 148
Width: 500
GlyphClass: 1
Flags: W
LayerCount: 2
Fore
SplineSet
63 0 m 1,0,-1
 63 1280 l 1,1,-1
 1087 1280 l 1,2,-1
 1087 0 l 1,3,-1
 63 0 l 1,0,-1
95 32 m 1,4,-1
 1055 32 l 1,5,-1
 1055 1248 l 1,6,-1
 95 1248 l 1,7,-1
 95 32 l 1,4,-1
EndSplineSet
EndChar

StartChar: Oslash
Encoding: 216 216 149
Width: 500
GlyphClass: 1
Flags: W
LayerCount: 2
Fore
SplineSet
63 0 m 1,0,-1
 63 1280 l 1,1,-1
 1087 1280 l 1,2,-1
 1087 0 l 1,3,-1
 63 0 l 1,0,-1
95 32 m 1,4,-1
 1055 32 l 1,5,-1
 1055 1248 l 1,6,-1
 95 1248 l 1,7,-1
 95 32 l 1,4,-1
EndSplineSet
EndChar

StartChar: Ugrave
Encoding: 217 217 150
Width: 500
GlyphClass: 1
Flags: W
LayerCount: 2
Fore
SplineSet
63 0 m 1,0,-1
 63 1280 l 1,1,-1
 1087 1280 l 1,2,-1
 1087 0 l 1,3,-1
 63 0 l 1,0,-1
95 32 m 1,4,-1
 1055 32 l 1,5,-1
 1055 1248 l 1,6,-1
 95 1248 l 1,7,-1
 95 32 l 1,4,-1
EndSplineSet
EndChar

StartChar: Uacute
Encoding: 218 218 151
Width: 500
GlyphClass: 1
Flags: W
LayerCount: 2
Fore
SplineSet
63 0 m 1,0,-1
 63 1280 l 1,1,-1
 1087 1280 l 1,2,-1
 1087 0 l 1,3,-1
 63 0 l 1,0,-1
95 32 m 1,4,-1
 1055 32 l 1,5,-1
 1055 1248 l 1,6,-1
 95 1248 l 1,7,-1
 95 32 l 1,4,-1
EndSplineSet
EndChar

StartChar: Ucircumflex
Encoding: 219 219 152
Width: 500
GlyphClass: 1
Flags: W
LayerCount: 2
Fore
SplineSet
63 0 m 1,0,-1
 63 1280 l 1,1,-1
 1087 1280 l 1,2,-1
 1087 0 l 1,3,-1
 63 0 l 1,0,-1
95 32 m 1,4,-1
 1055 32 l 1,5,-1
 1055 1248 l 1,6,-1
 95 1248 l 1,7,-1
 95 32 l 1,4,-1
EndSplineSet
EndChar

StartChar: Udieresis
Encoding: 220 220 153
Width: 500
GlyphClass: 1
Flags: W
LayerCount: 2
Fore
SplineSet
63 0 m 1,0,-1
 63 1280 l 1,1,-1
 1087 1280 l 1,2,-1
 1087 0 l 1,3,-1
 63 0 l 1,0,-1
95 32 m 1,4,-1
 1055 32 l 1,5,-1
 1055 1248 l 1,6,-1
 95 1248 l 1,7,-1
 95 32 l 1,4,-1
EndSplineSet
EndChar

StartChar: Yacute
Encoding: 221 221 154
Width: 500
GlyphClass: 1
Flags: W
LayerCount: 2
Fore
SplineSet
63 0 m 1,0,-1
 63 1280 l 1,1,-1
 1087 1280 l 1,2,-1
 1087 0 l 1,3,-1
 63 0 l 1,0,-1
95 32 m 1,4,-1
 1055 32 l 1,5,-1
 1055 1248 l 1,6,-1
 95 1248 l 1,7,-1
 95 32 l 1,4,-1
EndSplineSet
EndChar

StartChar: Thorn
Encoding: 222 222 155
Width: 500
GlyphClass: 1
Flags: W
LayerCount: 2
Fore
SplineSet
63 0 m 1,0,-1
 63 1280 l 1,1,-1
 1087 1280 l 1,2,-1
 1087 0 l 1,3,-1
 63 0 l 1,0,-1
95 32 m 1,4,-1
 1055 32 l 1,5,-1
 1055 1248 l 1,6,-1
 95 1248 l 1,7,-1
 95 32 l 1,4,-1
EndSplineSet
EndChar

StartChar: germandbls
Encoding: 223 223 156
Width: 500
GlyphClass: 1
Flags: W
LayerCount: 2
Fore
SplineSet
63 0 m 1,0,-1
 63 1280 l 1,1,-1
 1087 1280 l 1,2,-1
 1087 0 l 1,3,-1
 63 0 l 1,0,-1
95 32 m 1,4,-1
 1055 32 l 1,5,-1
 1055 1248 l 1,6,-1
 95 1248 l 1,7,-1
 95 32 l 1,4,-1
EndSplineSet
EndChar

StartChar: agrave
Encoding: 224 224 157
Width: 500
GlyphClass: 1
Flags: W
LayerCount: 2
Fore
SplineSet
63 0 m 1,0,-1
 63 1280 l 1,1,-1
 1087 1280 l 1,2,-1
 1087 0 l 1,3,-1
 63 0 l 1,0,-1
95 32 m 1,4,-1
 1055 32 l 1,5,-1
 1055 1248 l 1,6,-1
 95 1248 l 1,7,-1
 95 32 l 1,4,-1
EndSplineSet
EndChar

StartChar: aacute
Encoding: 225 225 158
Width: 500
GlyphClass: 1
Flags: W
LayerCount: 2
Fore
SplineSet
63 0 m 1,0,-1
 63 1280 l 1,1,-1
 1087 1280 l 1,2,-1
 1087 0 l 1,3,-1
 63 0 l 1,0,-1
95 32 m 1,4,-1
 1055 32 l 1,5,-1
 1055 1248 l 1,6,-1
 95 1248 l 1,7,-1
 95 32 l 1,4,-1
EndSplineSet
EndChar

StartChar: acircumflex
Encoding: 226 226 159
Width: 500
GlyphClass: 1
Flags: W
LayerCount: 2
Fore
SplineSet
63 0 m 1,0,-1
 63 1280 l 1,1,-1
 1087 1280 l 1,2,-1
 1087 0 l 1,3,-1
 63 0 l 1,0,-1
95 32 m 1,4,-1
 1055 32 l 1,5,-1
 1055 1248 l 1,6,-1
 95 1248 l 1,7,-1
 95 32 l 1,4,-1
EndSplineSet
EndChar

StartChar: atilde
Encoding: 227 227 160
Width: 500
GlyphClass: 1
Flags: W
LayerCount: 2
Fore
SplineSet
63 0 m 1,0,-1
 63 1280 l 1,1,-1
 1087 1280 l 1,2,-1
 1087 0 l 1,3,-1
 63 0 l 1,0,-1
95 32 m 1,4,-1
 1055 32 l 1,5,-1
 1055 1248 l 1,6,-1
 95 1248 l 1,7,-1
 95 32 l 1,4,-1
EndSplineSet
EndChar

StartChar: adieresis
Encoding: 228 228 161
Width: 500
GlyphClass: 1
Flags: W
LayerCount: 2
Fore
SplineSet
63 0 m 1,0,-1
 63 1280 l 1,1,-1
 1087 1280 l 1,2,-1
 1087 0 l 1,3,-1
 63 0 l 1,0,-1
95 32 m 1,4,-1
 1055 32 l 1,5,-1
 1055 1248 l 1,6,-1
 95 1248 l 1,7,-1
 95 32 l 1,4,-1
EndSplineSet
EndChar

StartChar: aring
Encoding: 229 229 162
Width: 500
GlyphClass: 1
Flags: W
LayerCount: 2
Fore
SplineSet
63 0 m 1,0,-1
 63 1280 l 1,1,-1
 1087 1280 l 1,2,-1
 1087 0 l 1,3,-1
 63 0 l 1,0,-1
95 32 m 1,4,-1
 1055 32 l 1,5,-1
 1055 1248 l 1,6,-1
 95 1248 l 1,7,-1
 95 32 l 1,4,-1
EndSplineSet
EndChar

StartChar: ae
Encoding: 230 230 163
Width: 500
GlyphClass: 1
Flags: W
LayerCount: 2
Fore
SplineSet
63 0 m 1,0,-1
 63 1280 l 1,1,-1
 1087 1280 l 1,2,-1
 1087 0 l 1,3,-1
 63 0 l 1,0,-1
95 32 m 1,4,-1
 1055 32 l 1,5,-1
 1055 1248 l 1,6,-1
 95 1248 l 1,7,-1
 95 32 l 1,4,-1
EndSplineSet
EndChar

StartChar: ccedilla
Encoding: 231 231 164
Width: 500
GlyphClass: 1
Flags: W
LayerCount: 2
Fore
SplineSet
63 0 m 1,0,-1
 63 1280 l 1,1,-1
 1087 1280 l 1,2,-1
 1087 0 l 1,3,-1
 63 0 l 1,0,-1
95 32 m 1,4,-1
 1055 32 l 1,5,-1
 1055 1248 l 1,6,-1
 95 1248 l 1,7,-1
 95 32 l 1,4,-1
EndSplineSet
EndChar

StartChar: egrave
Encoding: 232 232 165
Width: 500
GlyphClass: 1
Flags: W
LayerCount: 2
Fore
SplineSet
63 0 m 1,0,-1
 63 1280 l 1,1,-1
 1087 1280 l 1,2,-1
 1087 0 l 1,3,-1
 63 0 l 1,0,-1
95 32 m 1,4,-1
 1055 32 l 1,5,-1
 1055 1248 l 1,6,-1
 95 1248 l 1,7,-1
 95 32 l 1,4,-1
EndSplineSet
EndChar

StartChar: eacute
Encoding: 233 233 166
Width: 500
GlyphClass: 1
Flags: W
LayerCount: 2
Fore
SplineSet
63 0 m 1,0,-1
 63 1280 l 1,1,-1
 1087 1280 l 1,2,-1
 1087 0 l 1,3,-1
 63 0 l 1,0,-1
95 32 m 1,4,-1
 1055 32 l 1,5,-1
 1055 1248 l 1,6,-1
 95 1248 l 1,7,-1
 95 32 l 1,4,-1
EndSplineSet
EndChar

StartChar: ecircumflex
Encoding: 234 234 167
Width: 500
GlyphClass: 1
Flags: W
LayerCount: 2
Fore
SplineSet
63 0 m 1,0,-1
 63 1280 l 1,1,-1
 1087 1280 l 1,2,-1
 1087 0 l 1,3,-1
 63 0 l 1,0,-1
95 32 m 1,4,-1
 1055 32 l 1,5,-1
 1055 1248 l 1,6,-1
 95 1248 l 1,7,-1
 95 32 l 1,4,-1
EndSplineSet
EndChar

StartChar: edieresis
Encoding: 235 235 168
Width: 500
GlyphClass: 1
Flags: W
LayerCount: 2
Fore
SplineSet
63 0 m 1,0,-1
 63 1280 l 1,1,-1
 1087 1280 l 1,2,-1
 1087 0 l 1,3,-1
 63 0 l 1,0,-1
95 32 m 1,4,-1
 1055 32 l 1,5,-1
 1055 1248 l 1,6,-1
 95 1248 l 1,7,-1
 95 32 l 1,4,-1
EndSplineSet
EndChar

StartChar: igrave
Encoding: 236 236 169
Width: 500
GlyphClass: 1
Flags: W
LayerCount: 2
Fore
SplineSet
63 0 m 1,0,-1
 63 1280 l 1,1,-1
 1087 1280 l 1,2,-1
 1087 0 l 1,3,-1
 63 0 l 1,0,-1
95 32 m 1,4,-1
 1055 32 l 1,5,-1
 1055 1248 l 1,6,-1
 95 1248 l 1,7,-1
 95 32 l 1,4,-1
EndSplineSet
EndChar

StartChar: iacute
Encoding: 237 237 170
Width: 500
GlyphClass: 1
Flags: W
LayerCount: 2
Fore
SplineSet
63 0 m 1,0,-1
 63 1280 l 1,1,-1
 1087 1280 l 1,2,-1
 1087 0 l 1,3,-1
 63 0 l 1,0,-1
95 32 m 1,4,-1
 1055 32 l 1,5,-1
 1055 1248 l 1,6,-1
 95 1248 l 1,7,-1
 95 32 l 1,4,-1
EndSplineSet
EndChar

StartChar: icircumflex
Encoding: 238 238 171
Width: 500
GlyphClass: 1
Flags: W
LayerCount: 2
Fore
SplineSet
63 0 m 1,0,-1
 63 1280 l 1,1,-1
 1087 1280 l 1,2,-1
 1087 0 l 1,3,-1
 63 0 l 1,0,-1
95 32 m 1,4,-1
 1055 32 l 1,5,-1
 1055 1248 l 1,6,-1
 95 1248 l 1,7,-1
 95 32 l 1,4,-1
EndSplineSet
EndChar

StartChar: idieresis
Encoding: 239 239 172
Width: 500
GlyphClass: 1
Flags: W
LayerCount: 2
Fore
SplineSet
63 0 m 1,0,-1
 63 1280 l 1,1,-1
 1087 1280 l 1,2,-1
 1087 0 l 1,3,-1
 63 0 l 1,0,-1
95 32 m 1,4,-1
 1055 32 l 1,5,-1
 1055 1248 l 1,6,-1
 95 1248 l 1,7,-1
 95 32 l 1,4,-1
EndSplineSet
EndChar

StartChar: eth
Encoding: 240 240 173
Width: 500
GlyphClass: 1
Flags: W
LayerCount: 2
Fore
SplineSet
63 0 m 1,0,-1
 63 1280 l 1,1,-1
 1087 1280 l 1,2,-1
 1087 0 l 1,3,-1
 63 0 l 1,0,-1
95 32 m 1,4,-1
 1055 32 l 1,5,-1
 1055 1248 l 1,6,-1
 95 1248 l 1,7,-1
 95 32 l 1,4,-1
EndSplineSet
EndChar

StartChar: ntilde
Encoding: 241 241 174
Width: 500
GlyphClass: 1
Flags: W
LayerCount: 2
Fore
SplineSet
63 0 m 1,0,-1
 63 1280 l 1,1,-1
 1087 1280 l 1,2,-1
 1087 0 l 1,3,-1
 63 0 l 1,0,-1
95 32 m 1,4,-1
 1055 32 l 1,5,-1
 1055 1248 l 1,6,-1
 95 1248 l 1,7,-1
 95 32 l 1,4,-1
EndSplineSet
EndChar

StartChar: ograve
Encoding: 242 242 175
Width: 500
GlyphClass: 1
Flags: W
LayerCount: 2
Fore
SplineSet
63 0 m 1,0,-1
 63 1280 l 1,1,-1
 1087 1280 l 1,2,-1
 1087 0 l 1,3,-1
 63 0 l 1,0,-1
95 32 m 1,4,-1
 1055 32 l 1,5,-1
 1055 1248 l 1,6,-1
 95 1248 l 1,7,-1
 95 32 l 1,4,-1
EndSplineSet
EndChar

StartChar: oacute
Encoding: 243 243 176
Width: 500
GlyphClass: 1
Flags: W
LayerCount: 2
Fore
SplineSet
63 0 m 1,0,-1
 63 1280 l 1,1,-1
 1087 1280 l 1,2,-1
 1087 0 l 1,3,-1
 63 0 l 1,0,-1
95 32 m 1,4,-1
 1055 32 l 1,5,-1
 1055 1248 l 1,6,-1
 95 1248 l 1,7,-1
 95 32 l 1,4,-1
EndSplineSet
EndChar

StartChar: ocircumflex
Encoding: 244 244 177
Width: 500
GlyphClass: 1
Flags: W
LayerCount: 2
Fore
SplineSet
63 0 m 1,0,-1
 63 1280 l 1,1,-1
 1087 1280 l 1,2,-1
 1087 0 l 1,3,-1
 63 0 l 1,0,-1
95 32 m 1,4,-1
 1055 32 l 1,5,-1
 1055 1248 l 1,6,-1
 95 1248 l 1,7,-1
 95 32 l 1,4,-1
EndSplineSet
EndChar

StartChar: otilde
Encoding: 245 245 178
Width: 500
GlyphClass: 1
Flags: W
LayerCount: 2
Fore
SplineSet
63 0 m 1,0,-1
 63 1280 l 1,1,-1
 1087 1280 l 1,2,-1
 1087 0 l 1,3,-1
 63 0 l 1,0,-1
95 32 m 1,4,-1
 1055 32 l 1,5,-1
 1055 1248 l 1,6,-1
 95 1248 l 1,7,-1
 95 32 l 1,4,-1
EndSplineSet
EndChar

StartChar: odieresis
Encoding: 246 246 179
Width: 500
GlyphClass: 1
Flags: W
LayerCount: 2
Fore
SplineSet
63 0 m 1,0,-1
 63 1280 l 1,1,-1
 1087 1280 l 1,2,-1
 1087 0 l 1,3,-1
 63 0 l 1,0,-1
95 32 m 1,4,-1
 1055 32 l 1,5,-1
 1055 1248 l 1,6,-1
 95 1248 l 1,7,-1
 95 32 l 1,4,-1
EndSplineSet
EndChar

StartChar: divide
Encoding: 247 247 180
Width: 500
GlyphClass: 1
Flags: W
LayerCount: 2
Fore
SplineSet
63 0 m 1,0,-1
 63 1280 l 1,1,-1
 1087 1280 l 1,2,-1
 1087 0 l 1,3,-1
 63 0 l 1,0,-1
95 32 m 1,4,-1
 1055 32 l 1,5,-1
 1055 1248 l 1,6,-1
 95 1248 l 1,7,-1
 95 32 l 1,4,-1
EndSplineSet
EndChar

StartChar: oslash
Encoding: 248 248 181
Width: 500
GlyphClass: 1
Flags: W
LayerCount: 2
Fore
SplineSet
63 0 m 1,0,-1
 63 1280 l 1,1,-1
 1087 1280 l 1,2,-1
 1087 0 l 1,3,-1
 63 0 l 1,0,-1
95 32 m 1,4,-1
 1055 32 l 1,5,-1
 1055 1248 l 1,6,-1
 95 1248 l 1,7,-1
 95 32 l 1,4,-1
EndSplineSet
EndChar

StartChar: ugrave
Encoding: 249 249 182
Width: 500
GlyphClass: 1
Flags: W
LayerCount: 2
Fore
SplineSet
63 0 m 1,0,-1
 63 1280 l 1,1,-1
 1087 1280 l 1,2,-1
 1087 0 l 1,3,-1
 63 0 l 1,0,-1
95 32 m 1,4,-1
 1055 32 l 1,5,-1
 1055 1248 l 1,6,-1
 95 1248 l 1,7,-1
 95 32 l 1,4,-1
EndSplineSet
EndChar

StartChar: uacute
Encoding: 250 250 183
Width: 500
GlyphClass: 1
Flags: W
LayerCount: 2
Fore
SplineSet
63 0 m 1,0,-1
 63 1280 l 1,1,-1
 1087 1280 l 1,2,-1
 1087 0 l 1,3,-1
 63 0 l 1,0,-1
95 32 m 1,4,-1
 1055 32 l 1,5,-1
 1055 1248 l 1,6,-1
 95 1248 l 1,7,-1
 95 32 l 1,4,-1
EndSplineSet
EndChar

StartChar: ucircumflex
Encoding: 251 251 184
Width: 500
GlyphClass: 1
Flags: W
LayerCount: 2
Fore
SplineSet
63 0 m 1,0,-1
 63 1280 l 1,1,-1
 1087 1280 l 1,2,-1
 1087 0 l 1,3,-1
 63 0 l 1,0,-1
95 32 m 1,4,-1
 1055 32 l 1,5,-1
 1055 1248 l 1,6,-1
 95 1248 l 1,7,-1
 95 32 l 1,4,-1
EndSplineSet
EndChar

StartChar: udieresis
Encoding: 252 252 185
Width: 500
GlyphClass: 1
Flags: W
LayerCount: 2
Fore
SplineSet
63 0 m 1,0,-1
 63 1280 l 1,1,-1
 1087 1280 l 1,2,-1
 1087 0 l 1,3,-1
 63 0 l 1,0,-1
95 32 m 1,4,-1
 1055 32 l 1,5,-1
 1055 1248 l 1,6,-1
 95 1248 l 1,7,-1
 95 32 l 1,4,-1
EndSplineSet
EndChar

StartChar: yacute
Encoding: 253 253 186
Width: 500
GlyphClass: 1
Flags: W
LayerCount: 2
Fore
SplineSet
63 0 m 1,0,-1
 63 1280 l 1,1,-1
 1087 1280 l 1,2,-1
 1087 0 l 1,3,-1
 63 0 l 1,0,-1
95 32 m 1,4,-1
 1055 32 l 1,5,-1
 1055 1248 l 1,6,-1
 95 1248 l 1,7,-1
 95 32 l 1,4,-1
EndSplineSet
EndChar

StartChar: thorn
Encoding: 254 254 187
Width: 500
GlyphClass: 1
Flags: W
LayerCount: 2
Fore
SplineSet
63 0 m 1,0,-1
 63 1280 l 1,1,-1
 1087 1280 l 1,2,-1
 1087 0 l 1,3,-1
 63 0 l 1,0,-1
95 32 m 1,4,-1
 1055 32 l 1,5,-1
 1055 1248 l 1,6,-1
 95 1248 l 1,7,-1
 95 32 l 1,4,-1
EndSplineSet
EndChar

StartChar: ydieresis
Encoding: 255 255 188
Width: 500
GlyphClass: 1
Flags: W
LayerCount: 2
Fore
SplineSet
63 0 m 1,0,-1
 63 1280 l 1,1,-1
 1087 1280 l 1,2,-1
 1087 0 l 1,3,-1
 63 0 l 1,0,-1
95 32 m 1,4,-1
 1055 32 l 1,5,-1
 1055 1248 l 1,6,-1
 95 1248 l 1,7,-1
 95 32 l 1,4,-1
EndSplineSet
EndChar

StartChar: dotlessi
Encoding: 305 305 189
Width: 500
GlyphClass: 1
Flags: W
LayerCount: 2
Fore
SplineSet
63 0 m 1,0,-1
 63 1280 l 1,1,-1
 1087 1280 l 1,2,-1
 1087 0 l 1,3,-1
 63 0 l 1,0,-1
95 32 m 1,4,-1
 1055 32 l 1,5,-1
 1055 1248 l 1,6,-1
 95 1248 l 1,7,-1
 95 32 l 1,4,-1
EndSplineSet
EndChar

StartChar: Lslash
Encoding: 321 321 190
Width: 500
GlyphClass: 1
Flags: W
LayerCount: 2
Fore
SplineSet
63 0 m 1,0,-1
 63 1280 l 1,1,-1
 1087 1280 l 1,2,-1
 1087 0 l 1,3,-1
 63 0 l 1,0,-1
95 32 m 1,4,-1
 1055 32 l 1,5,-1
 1055 1248 l 1,6,-1
 95 1248 l 1,7,-1
 95 32 l 1,4,-1
EndSplineSet
EndChar

StartChar: lslash
Encoding: 322 322 191
Width: 500
GlyphClass: 1
Flags: W
LayerCount: 2
Fore
SplineSet
63 0 m 1,0,-1
 63 1280 l 1,1,-1
 1087 1280 l 1,2,-1
 1087 0 l 1,3,-1
 63 0 l 1,0,-1
95 32 m 1,4,-1
 1055 32 l 1,5,-1
 1055 1248 l 1,6,-1
 95 1248 l 1,7,-1
 95 32 l 1,4,-1
EndSplineSet
EndChar

StartChar: OE
Encoding: 338 338 192
Width: 500
GlyphClass: 1
Flags: W
LayerCount: 2
Fore
SplineSet
63 0 m 1,0,-1
 63 1280 l 1,1,-1
 1087 1280 l 1,2,-1
 1087 0 l 1,3,-1
 63 0 l 1,0,-1
95 32 m 1,4,-1
 1055 32 l 1,5,-1
 1055 1248 l 1,6,-1
 95 1248 l 1,7,-1
 95 32 l 1,4,-1
EndSplineSet
EndChar

StartChar: oe
Encoding: 339 339 193
Width: 500
GlyphClass: 1
Flags: W
LayerCount: 2
Fore
SplineSet
63 0 m 1,0,-1
 63 1280 l 1,1,-1
 1087 1280 l 1,2,-1
 1087 0 l 1,3,-1
 63 0 l 1,0,-1
95 32 m 1,4,-1
 1055 32 l 1,5,-1
 1055 1248 l 1,6,-1
 95 1248 l 1,7,-1
 95 32 l 1,4,-1
EndSplineSet
EndChar

StartChar: Scaron
Encoding: 352 352 194
Width: 500
GlyphClass: 1
Flags: W
LayerCount: 2
Fore
SplineSet
63 0 m 1,0,-1
 63 1280 l 1,1,-1
 1087 1280 l 1,2,-1
 1087 0 l 1,3,-1
 63 0 l 1,0,-1
95 32 m 1,4,-1
 1055 32 l 1,5,-1
 1055 1248 l 1,6,-1
 95 1248 l 1,7,-1
 95 32 l 1,4,-1
EndSplineSet
EndChar

StartChar: scaron
Encoding: 353 353 195
Width: 500
GlyphClass: 1
Flags: W
LayerCount: 2
Fore
SplineSet
63 0 m 1,0,-1
 63 1280 l 1,1,-1
 1087 1280 l 1,2,-1
 1087 0 l 1,3,-1
 63 0 l 1,0,-1
95 32 m 1,4,-1
 1055 32 l 1,5,-1
 1055 1248 l 1,6,-1
 95 1248 l 1,7,-1
 95 32 l 1,4,-1
EndSplineSet
EndChar

StartChar: Ydieresis
Encoding: 376 376 196
Width: 500
GlyphClass: 1
Flags: W
LayerCount: 2
Fore
SplineSet
63 0 m 1,0,-1
 63 1280 l 1,1,-1
 1087 1280 l 1,2,-1
 1087 0 l 1,3,-1
 63 0 l 1,0,-1
95 32 m 1,4,-1
 1055 32 l 1,5,-1
 1055 1248 l 1,6,-1
 95 1248 l 1,7,-1
 95 32 l 1,4,-1
EndSplineSet
EndChar

StartChar: Zcaron
Encoding: 381 381 197
Width: 500
GlyphClass: 1
Flags: W
LayerCount: 2
Fore
SplineSet
63 0 m 1,0,-1
 63 1280 l 1,1,-1
 1087 1280 l 1,2,-1
 1087 0 l 1,3,-1
 63 0 l 1,0,-1
95 32 m 1,4,-1
 1055 32 l 1,5,-1
 1055 1248 l 1,6,-1
 95 1248 l 1,7,-1
 95 32 l 1,4,-1
EndSplineSet
EndChar

StartChar: zcaron
Encoding: 382 382 198
Width: 500
GlyphClass: 1
Flags: W
LayerCount: 2
Fore
SplineSet
63 0 m 1,0,-1
 63 1280 l 1,1,-1
 1087 1280 l 1,2,-1
 1087 0 l 1,3,-1
 63 0 l 1,0,-1
95 32 m 1,4,-1
 1055 32 l 1,5,-1
 1055 1248 l 1,6,-1
 95 1248 l 1,7,-1
 95 32 l 1,4,-1
EndSplineSet
EndChar

StartChar: florin
Encoding: 402 402 199
Width: 500
GlyphClass: 1
Flags: W
LayerCount: 2
Fore
SplineSet
63 0 m 1,0,-1
 63 1280 l 1,1,-1
 1087 1280 l 1,2,-1
 1087 0 l 1,3,-1
 63 0 l 1,0,-1
95 32 m 1,4,-1
 1055 32 l 1,5,-1
 1055 1248 l 1,6,-1
 95 1248 l 1,7,-1
 95 32 l 1,4,-1
EndSplineSet
EndChar

StartChar: circumflex
Encoding: 710 710 200
Width: 500
GlyphClass: 1
Flags: W
LayerCount: 2
Fore
SplineSet
63 0 m 1,0,-1
 63 1280 l 1,1,-1
 1087 1280 l 1,2,-1
 1087 0 l 1,3,-1
 63 0 l 1,0,-1
95 32 m 1,4,-1
 1055 32 l 1,5,-1
 1055 1248 l 1,6,-1
 95 1248 l 1,7,-1
 95 32 l 1,4,-1
EndSplineSet
EndChar

StartChar: caron
Encoding: 711 711 201
Width: 500
GlyphClass: 1
Flags: W
LayerCount: 2
Fore
SplineSet
147 0 m 1,0,-1
 147 1280 l 1,1,-1
 1171 1280 l 1,2,-1
 1171 0 l 1,3,-1
 147 0 l 1,0,-1
179 32 m 1,4,-1
 1139 32 l 1,5,-1
 1139 1248 l 1,6,-1
 179 1248 l 1,7,-1
 179 32 l 1,4,-1
EndSplineSet
EndChar

StartChar: macron
Encoding: 175 175 202
AltUni2: 0002c9.ffffffff.0 0002c9.ffffffff.0
Width: 500
GlyphClass: 1
Flags: W
LayerCount: 2
Fore
SplineSet
63 0 m 1,0,-1
 63 1280 l 1,1,-1
 1087 1280 l 1,2,-1
 1087 0 l 1,3,-1
 63 0 l 1,0,-1
95 32 m 1,4,-1
 1055 32 l 1,5,-1
 1055 1248 l 1,6,-1
 95 1248 l 1,7,-1
 95 32 l 1,4,-1
EndSplineSet
EndChar

StartChar: breve
Encoding: 728 728 203
Width: 500
GlyphClass: 1
Flags: W
LayerCount: 2
Fore
SplineSet
63 0 m 1,0,-1
 63 1280 l 1,1,-1
 1087 1280 l 1,2,-1
 1087 0 l 1,3,-1
 63 0 l 1,0,-1
95 32 m 1,4,-1
 1055 32 l 1,5,-1
 1055 1248 l 1,6,-1
 95 1248 l 1,7,-1
 95 32 l 1,4,-1
EndSplineSet
EndChar

StartChar: dotaccent
Encoding: 729 729 204
Width: 500
GlyphClass: 1
Flags: W
LayerCount: 2
Fore
SplineSet
63 0 m 1,0,-1
 63 1280 l 1,1,-1
 1087 1280 l 1,2,-1
 1087 0 l 1,3,-1
 63 0 l 1,0,-1
95 32 m 1,4,-1
 1055 32 l 1,5,-1
 1055 1248 l 1,6,-1
 95 1248 l 1,7,-1
 95 32 l 1,4,-1
EndSplineSet
EndChar

StartChar: ring
Encoding: 730 730 205
Width: 500
GlyphClass: 1
Flags: W
LayerCount: 2
Fore
SplineSet
63 0 m 1,0,-1
 63 1280 l 1,1,-1
 1087 1280 l 1,2,-1
 1087 0 l 1,3,-1
 63 0 l 1,0,-1
95 32 m 1,4,-1
 1055 32 l 1,5,-1
 1055 1248 l 1,6,-1
 95 1248 l 1,7,-1
 95 32 l 1,4,-1
EndSplineSet
EndChar

StartChar: ogonek
Encoding: 731 731 206
Width: 500
GlyphClass: 1
Flags: W
LayerCount: 2
Fore
SplineSet
63 0 m 1,0,-1
 63 1280 l 1,1,-1
 1087 1280 l 1,2,-1
 1087 0 l 1,3,-1
 63 0 l 1,0,-1
95 32 m 1,4,-1
 1055 32 l 1,5,-1
 1055 1248 l 1,6,-1
 95 1248 l 1,7,-1
 95 32 l 1,4,-1
EndSplineSet
EndChar

StartChar: tilde
Encoding: 732 732 207
Width: 500
GlyphClass: 1
Flags: W
LayerCount: 2
Fore
SplineSet
63 0 m 1,0,-1
 63 1280 l 1,1,-1
 1087 1280 l 1,2,-1
 1087 0 l 1,3,-1
 63 0 l 1,0,-1
95 32 m 1,4,-1
 1055 32 l 1,5,-1
 1055 1248 l 1,6,-1
 95 1248 l 1,7,-1
 95 32 l 1,4,-1
EndSplineSet
EndChar

StartChar: hungarumlaut
Encoding: 733 733 208
Width: 500
GlyphClass: 1
Flags: W
LayerCount: 2
Fore
SplineSet
63 0 m 1,0,-1
 63 1280 l 1,1,-1
 1087 1280 l 1,2,-1
 1087 0 l 1,3,-1
 63 0 l 1,0,-1
95 32 m 1,4,-1
 1055 32 l 1,5,-1
 1055 1248 l 1,6,-1
 95 1248 l 1,7,-1
 95 32 l 1,4,-1
EndSplineSet
EndChar

StartChar: Delta
Encoding: 916 916 209
AltUni2: 002206.ffffffff.0 002206.ffffffff.0
Width: 500
GlyphClass: 1
Flags: W
LayerCount: 2
Fore
SplineSet
63 0 m 1,0,-1
 63 1280 l 1,1,-1
 1087 1280 l 1,2,-1
 1087 0 l 1,3,-1
 63 0 l 1,0,-1
95 32 m 1,4,-1
 1055 32 l 1,5,-1
 1055 1248 l 1,6,-1
 95 1248 l 1,7,-1
 95 32 l 1,4,-1
EndSplineSet
EndChar

StartChar: Omega
Encoding: 937 937 210
AltUni2: 002126.ffffffff.0 002126.ffffffff.0
Width: 500
GlyphClass: 1
Flags: W
LayerCount: 2
Fore
SplineSet
63 0 m 1,0,-1
 63 1280 l 1,1,-1
 1087 1280 l 1,2,-1
 1087 0 l 1,3,-1
 63 0 l 1,0,-1
95 32 m 1,4,-1
 1055 32 l 1,5,-1
 1055 1248 l 1,6,-1
 95 1248 l 1,7,-1
 95 32 l 1,4,-1
EndSplineSet
EndChar

StartChar: mu
Encoding: 181 181 211
AltUni2: 0003bc.ffffffff.0 0003bc.ffffffff.0
Width: 500
GlyphClass: 1
Flags: W
LayerCount: 2
Fore
SplineSet
63 0 m 1,0,-1
 63 1280 l 1,1,-1
 1087 1280 l 1,2,-1
 1087 0 l 1,3,-1
 63 0 l 1,0,-1
95 32 m 1,4,-1
 1055 32 l 1,5,-1
 1055 1248 l 1,6,-1
 95 1248 l 1,7,-1
 95 32 l 1,4,-1
EndSplineSet
EndChar

StartChar: pi
Encoding: 960 960 212
Width: 500
GlyphClass: 1
Flags: W
LayerCount: 2
Fore
SplineSet
63 0 m 1,0,-1
 63 1280 l 1,1,-1
 1087 1280 l 1,2,-1
 1087 0 l 1,3,-1
 63 0 l 1,0,-1
95 32 m 1,4,-1
 1055 32 l 1,5,-1
 1055 1248 l 1,6,-1
 95 1248 l 1,7,-1
 95 32 l 1,4,-1
EndSplineSet
EndChar

StartChar: endash
Encoding: 8211 8211 213
Width: 500
GlyphClass: 1
Flags: W
LayerCount: 2
Fore
SplineSet
63 0 m 1,0,-1
 63 1280 l 1,1,-1
 1087 1280 l 1,2,-1
 1087 0 l 1,3,-1
 63 0 l 1,0,-1
95 32 m 1,4,-1
 1055 32 l 1,5,-1
 1055 1248 l 1,6,-1
 95 1248 l 1,7,-1
 95 32 l 1,4,-1
EndSplineSet
EndChar

StartChar: emdash
Encoding: 8212 8212 214
Width: 500
GlyphClass: 1
Flags: W
LayerCount: 2
Fore
SplineSet
63 0 m 1,0,-1
 63 1280 l 1,1,-1
 1087 1280 l 1,2,-1
 1087 0 l 1,3,-1
 63 0 l 1,0,-1
95 32 m 1,4,-1
 1055 32 l 1,5,-1
 1055 1248 l 1,6,-1
 95 1248 l 1,7,-1
 95 32 l 1,4,-1
EndSplineSet
EndChar

StartChar: quoteleft
Encoding: 8216 8216 215
Width: 500
GlyphClass: 1
Flags: W
LayerCount: 2
Fore
SplineSet
63 0 m 1,0,-1
 63 1280 l 1,1,-1
 1087 1280 l 1,2,-1
 1087 0 l 1,3,-1
 63 0 l 1,0,-1
95 32 m 1,4,-1
 1055 32 l 1,5,-1
 1055 1248 l 1,6,-1
 95 1248 l 1,7,-1
 95 32 l 1,4,-1
EndSplineSet
EndChar

StartChar: quoteright
Encoding: 8217 8217 216
Width: 500
GlyphClass: 1
Flags: W
LayerCount: 2
Fore
SplineSet
63 0 m 1,0,-1
 63 1280 l 1,1,-1
 1087 1280 l 1,2,-1
 1087 0 l 1,3,-1
 63 0 l 1,0,-1
95 32 m 1,4,-1
 1055 32 l 1,5,-1
 1055 1248 l 1,6,-1
 95 1248 l 1,7,-1
 95 32 l 1,4,-1
EndSplineSet
EndChar

StartChar: quotesinglbase
Encoding: 8218 8218 217
Width: 500
GlyphClass: 1
Flags: W
LayerCount: 2
Fore
SplineSet
63 0 m 1,0,-1
 63 1280 l 1,1,-1
 1087 1280 l 1,2,-1
 1087 0 l 1,3,-1
 63 0 l 1,0,-1
95 32 m 1,4,-1
 1055 32 l 1,5,-1
 1055 1248 l 1,6,-1
 95 1248 l 1,7,-1
 95 32 l 1,4,-1
EndSplineSet
EndChar

StartChar: quotedblleft
Encoding: 8220 8220 218
Width: 500
GlyphClass: 1
Flags: W
LayerCount: 2
Fore
SplineSet
63 0 m 1,0,-1
 63 1280 l 1,1,-1
 1087 1280 l 1,2,-1
 1087 0 l 1,3,-1
 63 0 l 1,0,-1
95 32 m 1,4,-1
 1055 32 l 1,5,-1
 1055 1248 l 1,6,-1
 95 1248 l 1,7,-1
 95 32 l 1,4,-1
EndSplineSet
EndChar

StartChar: quotedblright
Encoding: 8221 8221 219
Width: 500
GlyphClass: 1
Flags: W
LayerCount: 2
Fore
SplineSet
63 0 m 1,0,-1
 63 1280 l 1,1,-1
 1087 1280 l 1,2,-1
 1087 0 l 1,3,-1
 63 0 l 1,0,-1
95 32 m 1,4,-1
 1055 32 l 1,5,-1
 1055 1248 l 1,6,-1
 95 1248 l 1,7,-1
 95 32 l 1,4,-1
EndSplineSet
EndChar

StartChar: quotedblbase
Encoding: 8222 8222 220
Width: 500
GlyphClass: 1
Flags: W
LayerCount: 2
Fore
SplineSet
63 0 m 1,0,-1
 63 1280 l 1,1,-1
 1087 1280 l 1,2,-1
 1087 0 l 1,3,-1
 63 0 l 1,0,-1
95 32 m 1,4,-1
 1055 32 l 1,5,-1
 1055 1248 l 1,6,-1
 95 1248 l 1,7,-1
 95 32 l 1,4,-1
EndSplineSet
EndChar

StartChar: dagger
Encoding: 8224 8224 221
Width: 500
GlyphClass: 1
Flags: W
LayerCount: 2
Fore
SplineSet
63 0 m 1,0,-1
 63 1280 l 1,1,-1
 1087 1280 l 1,2,-1
 1087 0 l 1,3,-1
 63 0 l 1,0,-1
95 32 m 1,4,-1
 1055 32 l 1,5,-1
 1055 1248 l 1,6,-1
 95 1248 l 1,7,-1
 95 32 l 1,4,-1
EndSplineSet
EndChar

StartChar: daggerdbl
Encoding: 8225 8225 222
Width: 500
GlyphClass: 1
Flags: W
LayerCount: 2
Fore
SplineSet
63 0 m 1,0,-1
 63 1280 l 1,1,-1
 1087 1280 l 1,2,-1
 1087 0 l 1,3,-1
 63 0 l 1,0,-1
95 32 m 1,4,-1
 1055 32 l 1,5,-1
 1055 1248 l 1,6,-1
 95 1248 l 1,7,-1
 95 32 l 1,4,-1
EndSplineSet
EndChar

StartChar: bullet
Encoding: 8226 8226 223
Width: 500
GlyphClass: 1
Flags: W
LayerCount: 2
Fore
SplineSet
63 0 m 1,0,-1
 63 1280 l 1,1,-1
 1087 1280 l 1,2,-1
 1087 0 l 1,3,-1
 63 0 l 1,0,-1
95 32 m 1,4,-1
 1055 32 l 1,5,-1
 1055 1248 l 1,6,-1
 95 1248 l 1,7,-1
 95 32 l 1,4,-1
EndSplineSet
EndChar

StartChar: ellipsis
Encoding: 8230 8230 224
Width: 500
GlyphClass: 1
Flags: W
LayerCount: 2
Fore
SplineSet
63 0 m 1,0,-1
 63 1280 l 1,1,-1
 1087 1280 l 1,2,-1
 1087 0 l 1,3,-1
 63 0 l 1,0,-1
95 32 m 1,4,-1
 1055 32 l 1,5,-1
 1055 1248 l 1,6,-1
 95 1248 l 1,7,-1
 95 32 l 1,4,-1
EndSplineSet
EndChar

StartChar: perthousand
Encoding: 8240 8240 225
Width: 500
GlyphClass: 1
Flags: W
LayerCount: 2
Fore
SplineSet
63 0 m 1,0,-1
 63 1280 l 1,1,-1
 1087 1280 l 1,2,-1
 1087 0 l 1,3,-1
 63 0 l 1,0,-1
95 32 m 1,4,-1
 1055 32 l 1,5,-1
 1055 1248 l 1,6,-1
 95 1248 l 1,7,-1
 95 32 l 1,4,-1
EndSplineSet
EndChar

StartChar: guilsinglleft
Encoding: 8249 8249 226
Width: 500
GlyphClass: 1
Flags: W
LayerCount: 2
Fore
SplineSet
63 0 m 1,0,-1
 63 1280 l 1,1,-1
 1087 1280 l 1,2,-1
 1087 0 l 1,3,-1
 63 0 l 1,0,-1
95 32 m 1,4,-1
 1055 32 l 1,5,-1
 1055 1248 l 1,6,-1
 95 1248 l 1,7,-1
 95 32 l 1,4,-1
EndSplineSet
EndChar

StartChar: guilsinglright
Encoding: 8250 8250 227
Width: 500
GlyphClass: 1
Flags: W
LayerCount: 2
Fore
SplineSet
63 0 m 1,0,-1
 63 1280 l 1,1,-1
 1087 1280 l 1,2,-1
 1087 0 l 1,3,-1
 63 0 l 1,0,-1
95 32 m 1,4,-1
 1055 32 l 1,5,-1
 1055 1248 l 1,6,-1
 95 1248 l 1,7,-1
 95 32 l 1,4,-1
EndSplineSet
EndChar

StartChar: fraction
Encoding: 8260 8260 228
Width: 500
GlyphClass: 1
Flags: W
LayerCount: 2
Fore
SplineSet
63 0 m 1,0,-1
 63 1280 l 1,1,-1
 1087 1280 l 1,2,-1
 1087 0 l 1,3,-1
 63 0 l 1,0,-1
95 32 m 1,4,-1
 1055 32 l 1,5,-1
 1055 1248 l 1,6,-1
 95 1248 l 1,7,-1
 95 32 l 1,4,-1
EndSplineSet
EndChar

StartChar: trademark
Encoding: 8482 8482 229
Width: 500
GlyphClass: 1
Flags: W
LayerCount: 2
Fore
SplineSet
63 0 m 1,0,-1
 63 1280 l 1,1,-1
 1087 1280 l 1,2,-1
 1087 0 l 1,3,-1
 63 0 l 1,0,-1
95 32 m 1,4,-1
 1055 32 l 1,5,-1
 1055 1248 l 1,6,-1
 95 1248 l 1,7,-1
 95 32 l 1,4,-1
EndSplineSet
EndChar

StartChar: partialdiff
Encoding: 8706 8706 230
Width: 500
GlyphClass: 1
Flags: W
LayerCount: 2
Fore
SplineSet
63 0 m 1,0,-1
 63 1280 l 1,1,-1
 1087 1280 l 1,2,-1
 1087 0 l 1,3,-1
 63 0 l 1,0,-1
95 32 m 1,4,-1
 1055 32 l 1,5,-1
 1055 1248 l 1,6,-1
 95 1248 l 1,7,-1
 95 32 l 1,4,-1
EndSplineSet
EndChar

StartChar: product
Encoding: 8719 8719 231
Width: 500
GlyphClass: 1
Flags: W
LayerCount: 2
Fore
SplineSet
63 0 m 1,0,-1
 63 1280 l 1,1,-1
 1087 1280 l 1,2,-1
 1087 0 l 1,3,-1
 63 0 l 1,0,-1
95 32 m 1,4,-1
 1055 32 l 1,5,-1
 1055 1248 l 1,6,-1
 95 1248 l 1,7,-1
 95 32 l 1,4,-1
EndSplineSet
EndChar

StartChar: summation
Encoding: 8721 8721 232
Width: 500
GlyphClass: 1
Flags: W
LayerCount: 2
Fore
SplineSet
63 0 m 1,0,-1
 63 1280 l 1,1,-1
 1087 1280 l 1,2,-1
 1087 0 l 1,3,-1
 63 0 l 1,0,-1
95 32 m 1,4,-1
 1055 32 l 1,5,-1
 1055 1248 l 1,6,-1
 95 1248 l 1,7,-1
 95 32 l 1,4,-1
EndSplineSet
EndChar

StartChar: minus
Encoding: 173 173 233
AltUni2: 002212.ffffffff.0 002212.ffffffff.0
Width: 500
GlyphClass: 1
Flags: W
LayerCount: 2
Fore
SplineSet
63 0 m 1,0,-1
 63 1280 l 1,1,-1
 1087 1280 l 1,2,-1
 1087 0 l 1,3,-1
 63 0 l 1,0,-1
95 32 m 1,4,-1
 1055 32 l 1,5,-1
 1055 1248 l 1,6,-1
 95 1248 l 1,7,-1
 95 32 l 1,4,-1
EndSplineSet
EndChar

StartChar: periodcentered
Encoding: 183 183 234
AltUni2: 002219.ffffffff.0 002219.ffffffff.0
Width: 500
GlyphClass: 1
Flags: W
LayerCount: 2
Fore
SplineSet
63 0 m 1,0,-1
 63 1280 l 1,1,-1
 1087 1280 l 1,2,-1
 1087 0 l 1,3,-1
 63 0 l 1,0,-1
95 32 m 1,4,-1
 1055 32 l 1,5,-1
 1055 1248 l 1,6,-1
 95 1248 l 1,7,-1
 95 32 l 1,4,-1
EndSplineSet
EndChar

StartChar: radical
Encoding: 8730 8730 235
Width: 500
GlyphClass: 1
Flags: W
LayerCount: 2
Fore
SplineSet
63 0 m 1,0,-1
 63 1280 l 1,1,-1
 1087 1280 l 1,2,-1
 1087 0 l 1,3,-1
 63 0 l 1,0,-1
95 32 m 1,4,-1
 1055 32 l 1,5,-1
 1055 1248 l 1,6,-1
 95 1248 l 1,7,-1
 95 32 l 1,4,-1
EndSplineSet
EndChar

StartChar: infinity
Encoding: 8734 8734 236
Width: 500
GlyphClass: 1
Flags: W
LayerCount: 2
Fore
SplineSet
63 0 m 1,0,-1
 63 1280 l 1,1,-1
 1087 1280 l 1,2,-1
 1087 0 l 1,3,-1
 63 0 l 1,0,-1
95 32 m 1,4,-1
 1055 32 l 1,5,-1
 1055 1248 l 1,6,-1
 95 1248 l 1,7,-1
 95 32 l 1,4,-1
EndSplineSet
EndChar

StartChar: integral
Encoding: 8747 8747 237
Width: 500
GlyphClass: 1
Flags: W
LayerCount: 2
Fore
SplineSet
63 0 m 1,0,-1
 63 1280 l 1,1,-1
 1087 1280 l 1,2,-1
 1087 0 l 1,3,-1
 63 0 l 1,0,-1
95 32 m 1,4,-1
 1055 32 l 1,5,-1
 1055 1248 l 1,6,-1
 95 1248 l 1,7,-1
 95 32 l 1,4,-1
EndSplineSet
EndChar

StartChar: approxequal
Encoding: 8776 8776 238
AltUni2: 0022f2.ffffffff.0 0022f2.ffffffff.0
Width: 500
GlyphClass: 1
Flags: W
LayerCount: 2
Fore
SplineSet
63 0 m 1,0,-1
 63 1280 l 1,1,-1
 1087 1280 l 1,2,-1
 1087 0 l 1,3,-1
 63 0 l 1,0,-1
95 32 m 1,4,-1
 1055 32 l 1,5,-1
 1055 1248 l 1,6,-1
 95 1248 l 1,7,-1
 95 32 l 1,4,-1
EndSplineSet
EndChar

StartChar: notequal
Encoding: 8800 8800 239
Width: 500
GlyphClass: 1
Flags: W
LayerCount: 2
Fore
SplineSet
63 0 m 1,0,-1
 63 1280 l 1,1,-1
 1087 1280 l 1,2,-1
 1087 0 l 1,3,-1
 63 0 l 1,0,-1
95 32 m 1,4,-1
 1055 32 l 1,5,-1
 1055 1248 l 1,6,-1
 95 1248 l 1,7,-1
 95 32 l 1,4,-1
EndSplineSet
EndChar

StartChar: lessequal
Encoding: 8804 8804 240
Width: 500
GlyphClass: 1
Flags: W
LayerCount: 2
Fore
SplineSet
63 0 m 1,0,-1
 63 1280 l 1,1,-1
 1087 1280 l 1,2,-1
 1087 0 l 1,3,-1
 63 0 l 1,0,-1
95 32 m 1,4,-1
 1055 32 l 1,5,-1
 1055 1248 l 1,6,-1
 95 1248 l 1,7,-1
 95 32 l 1,4,-1
EndSplineSet
EndChar

StartChar: greaterequal
Encoding: 8805 8805 241
Width: 500
GlyphClass: 1
Flags: W
LayerCount: 2
Fore
SplineSet
63 0 m 1,0,-1
 63 1280 l 1,1,-1
 1087 1280 l 1,2,-1
 1087 0 l 1,3,-1
 63 0 l 1,0,-1
95 32 m 1,4,-1
 1055 32 l 1,5,-1
 1055 1248 l 1,6,-1
 95 1248 l 1,7,-1
 95 32 l 1,4,-1
EndSplineSet
EndChar

StartChar: lozenge
Encoding: 9674 9674 242
Width: 500
GlyphClass: 1
Flags: W
LayerCount: 2
Fore
SplineSet
63 0 m 1,0,-1
 63 1280 l 1,1,-1
 1087 1280 l 1,2,-1
 1087 0 l 1,3,-1
 63 0 l 1,0,-1
95 32 m 1,4,-1
 1055 32 l 1,5,-1
 1055 1248 l 1,6,-1
 95 1248 l 1,7,-1
 95 32 l 1,4,-1
EndSplineSet
EndChar

StartChar: fi
Encoding: 61441 61441 243
Width: 500
GlyphClass: 1
Flags: W
LayerCount: 2
Fore
SplineSet
63 0 m 1,0,-1
 63 1280 l 1,1,-1
 1087 1280 l 1,2,-1
 1087 0 l 1,3,-1
 63 0 l 1,0,-1
95 32 m 1,4,-1
 1055 32 l 1,5,-1
 1055 1248 l 1,6,-1
 95 1248 l 1,7,-1
 95 32 l 1,4,-1
EndSplineSet
EndChar

StartChar: fl
Encoding: 61442 61442 244
Width: 500
GlyphClass: 1
Flags: W
LayerCount: 2
Fore
SplineSet
63 0 m 1,0,-1
 63 1280 l 1,1,-1
 1087 1280 l 1,2,-1
 1087 0 l 1,3,-1
 63 0 l 1,0,-1
95 32 m 1,4,-1
 1055 32 l 1,5,-1
 1055 1248 l 1,6,-1
 95 1248 l 1,7,-1
 95 32 l 1,4,-1
EndSplineSet
EndChar

StartChar: nonbreakingspace
Encoding: 160 160 249
Width: 500
GlyphClass: 1
Flags: W
LayerCount: 2
Fore
SplineSet
63 0 m 1,0,-1
 63 1280 l 1,1,-1
 1087 1280 l 1,2,-1
 1087 0 l 1,3,-1
 63 0 l 1,0,-1
95 32 m 1,4,-1
 1055 32 l 1,5,-1
 1055 1248 l 1,6,-1
 95 1248 l 1,7,-1
 95 32 l 1,4,-1
EndSplineSet
EndChar

StartChar: apple
Encoding: 61440 61440 250
Width: 500
GlyphClass: 1
Flags: W
LayerCount: 2
Fore
SplineSet
63 0 m 1,0,-1
 63 1280 l 1,1,-1
 1087 1280 l 1,2,-1
 1087 0 l 1,3,-1
 63 0 l 1,0,-1
95 32 m 1,4,-1
 1055 32 l 1,5,-1
 1055 1248 l 1,6,-1
 95 1248 l 1,7,-1
 95 32 l 1,4,-1
EndSplineSet
EndChar
